M48
METRIC,LZ,000.000
;FILE_FORMAT=3:3
;TYPE=PLATED
;Layer: PTH_Through
;EasyEDA v6.5.22, 2022-12-28 23:50:03
;d063097526e5497293d9c31780fe4a5b,1c40624b1397419d878b7769f07bb2b0,10
;Gerber Generator version 0.2
;Holesize 1 = 0.800 mm
T01C0.800
;Holesize 2 = 0.900 mm
T02C0.900
;Holesize 3 = 0.901 mm
T03C0.901
;Holesize 4 = 0.915 mm
T04C0.915
;Holesize 5 = 1.000 mm
T05C1.000
;Holesize 6 = 1.101 mm
T06C1.101
;Holesize 7 = 1.200 mm
T07C1.200
%
G05
G90
T01
X013970Y030845
X013970Y028845
X005207Y007350
X005207Y005350
X025273Y005350
X025273Y007350
T02
X005207Y011176
X015367Y011176
X062103Y037846
X072263Y037846
X026416Y037846
X016256Y037846
X062230Y022606
X072390Y022606
X062103Y007366
X072263Y007366
X006223Y050546
X006223Y060706
X021463Y050546
X021463Y060706
X036703Y050546
X036703Y060706
X051943Y050546
X051943Y060706
T03
X031847Y037846G85X031907Y037846
X031877Y035306
X031877Y032766
X031877Y027686
X031877Y025146
X031877Y022606
X031877Y017526
X031877Y014986
X031877Y009906
X031877Y007366
X031877Y004826
X031877Y002286
X057277Y002286
X057277Y004826
X057277Y007366
X057277Y009906
X057277Y012446
X057277Y014986
X057277Y017526
X057277Y020066
X057277Y022606
X057277Y025146
X057277Y027686
X057277Y030226
X057277Y032766
X057277Y035306
X057277Y037846
T04
X078105Y036068
X080645Y036068
X021844Y011176
X021844Y013716
X074930Y045593
X077470Y045593
X080010Y045593
X082550Y045593
X064897Y001270
X064897Y-001270
X064897Y-003810
X064897Y-006350
X031877Y030226
X031877Y020066
X031877Y012446
T05
X062198Y015748
X070898Y015748
X078867Y020447
X078867Y022987
X078867Y025527
T06
X017805Y-002540
X012522Y-002540
T07
X079756Y008382
X079756Y016002
X019991Y032095
X026491Y032095
X026491Y027595
X019991Y027595
X016585Y050582
X010085Y050582
X010085Y055082
X016585Y055082
X031825Y050582
X025325Y050582
X025325Y055082
X031825Y055082
X047065Y050582
X040565Y050582
X040565Y055082
X047065Y055082
X062305Y050455
X055805Y050455
X055805Y054955
X062305Y054955
X015240Y005339
X017780Y005329
X012700Y005339
M30
