G04 Layer: TopLayer*
G04 EasyEDA v6.5.22, 2022-12-28 23:50:03*
G04 d063097526e5497293d9c31780fe4a5b,1c40624b1397419d878b7769f07bb2b0,10*
G04 Gerber Generator version 0.2*
G04 Scale: 100 percent, Rotated: No, Reflected: No *
G04 Dimensions in millimeters *
G04 leading zeros omitted , absolute positions ,4 integer and 5 decimal *
%FSLAX45Y45*%
%MOMM*%

%ADD10C,1.0000*%
%ADD11C,0.7000*%
%ADD12C,1.8796*%
%ADD13C,1.3000*%
%ADD14C,1.9000*%
%ADD15C,1.8000*%
%ADD16C,1.7780*%
%ADD17R,1.8000X1.8000*%
%ADD18C,2.0000*%
%ADD19R,1.5240X1.5240*%
%ADD20C,1.5240*%
%ADD21O,1.7999964X2.5999948*%
%ADD22R,1.8000X2.6000*%
%ADD23R,1.7000X1.7000*%
%ADD24C,1.7000*%
%ADD25C,0.0172*%

%LPD*%
G36*
X6654952Y-1015492D02*
G01*
X6650990Y-1014679D01*
X6647637Y-1012393D01*
X6645452Y-1008938D01*
X6644792Y-1004976D01*
X6645757Y-1001014D01*
X6648196Y-997762D01*
X6651701Y-995730D01*
X6655155Y-994562D01*
X6666941Y-988720D01*
X6677863Y-981405D01*
X6688023Y-972515D01*
X6941515Y-719023D01*
X6950405Y-708863D01*
X6957720Y-697941D01*
X6963562Y-686155D01*
X6967778Y-673709D01*
X6970318Y-660806D01*
X6971233Y-647344D01*
X6971233Y-114655D01*
X6970318Y-101193D01*
X6967778Y-88290D01*
X6963562Y-75844D01*
X6957720Y-64058D01*
X6950405Y-53136D01*
X6941515Y-42976D01*
X6772351Y126187D01*
X6770166Y129438D01*
X6769404Y133350D01*
X6770166Y137261D01*
X6772351Y140512D01*
X7221220Y589381D01*
X7224369Y591515D01*
X7228128Y592378D01*
X7238644Y592683D01*
X7255002Y595020D01*
X7270953Y599186D01*
X7286294Y605180D01*
X7300925Y612902D01*
X7314539Y622198D01*
X7326985Y633018D01*
X7338161Y645160D01*
X7347813Y658469D01*
X7355941Y672846D01*
X7362393Y688035D01*
X7367016Y703884D01*
X7369809Y720140D01*
X7370267Y728116D01*
X7371232Y731824D01*
X7373467Y734923D01*
X7376668Y736955D01*
X7380427Y737666D01*
X7873593Y737666D01*
X7877149Y737057D01*
X7880248Y735228D01*
X7889798Y726948D01*
X7903057Y717905D01*
X7917230Y710387D01*
X7932166Y704596D01*
X7947710Y700532D01*
X7963560Y698246D01*
X7979613Y697788D01*
X7995615Y699160D01*
X8011312Y702310D01*
X8026552Y707288D01*
X8041182Y713943D01*
X8054898Y722223D01*
X8067598Y732028D01*
X8079130Y743204D01*
X8089239Y755599D01*
X8097926Y769112D01*
X8104987Y783488D01*
X8110423Y798626D01*
X8114030Y814222D01*
X8115858Y830173D01*
X8115858Y846226D01*
X8114030Y862177D01*
X8110423Y877773D01*
X8104987Y892911D01*
X8097926Y907287D01*
X8089239Y920800D01*
X8079130Y933196D01*
X8067598Y944371D01*
X8054898Y954176D01*
X8041182Y962456D01*
X8026552Y969111D01*
X8011312Y974090D01*
X7995615Y977239D01*
X7979613Y978611D01*
X7963560Y978153D01*
X7947710Y975868D01*
X7932166Y971803D01*
X7917230Y966012D01*
X7903057Y958494D01*
X7889798Y949452D01*
X7880248Y941171D01*
X7877149Y939342D01*
X7873593Y938682D01*
X7328255Y938682D01*
X7314793Y937818D01*
X7301890Y935278D01*
X7289444Y931011D01*
X7277658Y925220D01*
X7266736Y917905D01*
X7256576Y909015D01*
X7231481Y883919D01*
X7228078Y881684D01*
X7224014Y880973D01*
X7222185Y881024D01*
X7205725Y879602D01*
X7189571Y876300D01*
X7173874Y871219D01*
X7158888Y864362D01*
X7144766Y855878D01*
X7131710Y845769D01*
X7125716Y839978D01*
X7122464Y837844D01*
X7118654Y837082D01*
X7103821Y837082D01*
X7099960Y837895D01*
X7096658Y840079D01*
X6468059Y1468678D01*
X6465925Y1471828D01*
X6465112Y1475587D01*
X6465722Y1479397D01*
X6467703Y1482648D01*
X6470751Y1484985D01*
X6476441Y1487779D01*
X6487363Y1495094D01*
X6497523Y1503984D01*
X6814515Y1820976D01*
X6823405Y1831136D01*
X6830720Y1842058D01*
X6836562Y1853844D01*
X6840778Y1866290D01*
X6843318Y1879193D01*
X6844233Y1892655D01*
X6844233Y3814978D01*
X6844995Y3818839D01*
X6847179Y3822141D01*
X7125258Y4100220D01*
X7128560Y4102404D01*
X7132421Y4103166D01*
X7797444Y4103166D01*
X7810906Y4104081D01*
X7823809Y4106621D01*
X7836255Y4110837D01*
X7848041Y4116679D01*
X7858963Y4123994D01*
X7869123Y4132884D01*
X8071815Y4335576D01*
X8080705Y4345736D01*
X8088020Y4356658D01*
X8093862Y4368444D01*
X8098078Y4380890D01*
X8100618Y4393793D01*
X8101533Y4407255D01*
X8101533Y4459020D01*
X8102244Y4462780D01*
X8104276Y4465980D01*
X8107781Y4469688D01*
X8117484Y4482693D01*
X8119211Y4485741D01*
X8122005Y4488840D01*
X8125866Y4490567D01*
X8130133Y4490567D01*
X8133994Y4488840D01*
X8136788Y4485741D01*
X8138515Y4482693D01*
X8148218Y4469688D01*
X8159343Y4457903D01*
X8171738Y4447489D01*
X8185302Y4438599D01*
X8199780Y4431284D01*
X8204200Y4429709D01*
X8204200Y4508500D01*
X8144713Y4508500D01*
X8141004Y4509211D01*
X8137804Y4511192D01*
X8135569Y4514189D01*
X8134553Y4517847D01*
X8134959Y4521555D01*
X8136636Y4527143D01*
X8139430Y4543094D01*
X8140395Y4559300D01*
X8139430Y4575505D01*
X8136636Y4591456D01*
X8134959Y4597044D01*
X8134553Y4600752D01*
X8135569Y4604410D01*
X8137804Y4607407D01*
X8141004Y4609388D01*
X8144713Y4610100D01*
X8204200Y4610100D01*
X8204200Y4688890D01*
X8199780Y4687316D01*
X8185302Y4680000D01*
X8171738Y4671110D01*
X8159343Y4660696D01*
X8148218Y4648911D01*
X8138515Y4635906D01*
X8136788Y4632858D01*
X8133994Y4629759D01*
X8130133Y4628032D01*
X8125866Y4628032D01*
X8122005Y4629759D01*
X8119211Y4632858D01*
X8117484Y4635906D01*
X8107781Y4648911D01*
X8096656Y4660696D01*
X8084261Y4671110D01*
X8070697Y4680000D01*
X8056219Y4687316D01*
X8040979Y4692853D01*
X8025180Y4696561D01*
X8009128Y4698441D01*
X7992872Y4698441D01*
X7976819Y4696561D01*
X7961020Y4692853D01*
X7945780Y4687316D01*
X7931302Y4680000D01*
X7917738Y4671110D01*
X7905343Y4660696D01*
X7894218Y4648911D01*
X7884515Y4635906D01*
X7882788Y4632858D01*
X7879994Y4629759D01*
X7876133Y4628032D01*
X7871866Y4628032D01*
X7868005Y4629759D01*
X7865211Y4632858D01*
X7863484Y4635906D01*
X7853781Y4648911D01*
X7842656Y4660696D01*
X7836153Y4666183D01*
X7833461Y4669637D01*
X7832496Y4673955D01*
X7832496Y4686096D01*
X7832293Y4692396D01*
X7831632Y4698492D01*
X7830566Y4704486D01*
X7829042Y4710379D01*
X7827111Y4716170D01*
X7824774Y4721809D01*
X7822031Y4727295D01*
X7818932Y4732528D01*
X7815427Y4737557D01*
X7811617Y4742281D01*
X7807350Y4746904D01*
X7667904Y4886350D01*
X7663281Y4890617D01*
X7658557Y4894427D01*
X7653528Y4897932D01*
X7648295Y4901031D01*
X7642809Y4903774D01*
X7637170Y4906111D01*
X7631379Y4908042D01*
X7625486Y4909566D01*
X7619492Y4910632D01*
X7613396Y4911293D01*
X7607096Y4911496D01*
X6332677Y4911496D01*
X6328664Y4912309D01*
X6325362Y4914595D01*
X6323177Y4918049D01*
X6322517Y4922062D01*
X6323482Y4925974D01*
X6325870Y4929225D01*
X6336893Y4939080D01*
X6348171Y4951679D01*
X6357924Y4965446D01*
X6366103Y4980228D01*
X6372555Y4995824D01*
X6377228Y5012029D01*
X6380022Y5028641D01*
X6380988Y5045506D01*
X6380022Y5062372D01*
X6377228Y5078984D01*
X6372555Y5095189D01*
X6366103Y5110784D01*
X6357924Y5125567D01*
X6348171Y5139334D01*
X6336893Y5151932D01*
X6324346Y5163159D01*
X6310579Y5172913D01*
X6295796Y5181092D01*
X6280200Y5187543D01*
X6263995Y5192217D01*
X6247333Y5195062D01*
X6230518Y5195976D01*
X6213652Y5195062D01*
X6196990Y5192217D01*
X6180785Y5187543D01*
X6165189Y5181092D01*
X6150406Y5172913D01*
X6136640Y5163159D01*
X6124092Y5151932D01*
X6112814Y5139334D01*
X6109970Y5135321D01*
X6107734Y5132984D01*
X6104839Y5131511D01*
X6101689Y5131003D01*
X5709310Y5131003D01*
X5706160Y5131511D01*
X5703265Y5132984D01*
X5701030Y5135321D01*
X5698185Y5139334D01*
X5686907Y5151932D01*
X5674360Y5163159D01*
X5660593Y5172913D01*
X5645810Y5181092D01*
X5630214Y5187543D01*
X5614009Y5192217D01*
X5597347Y5195062D01*
X5580532Y5195976D01*
X5563666Y5195062D01*
X5547004Y5192217D01*
X5530799Y5187543D01*
X5515203Y5181092D01*
X5500420Y5172913D01*
X5486654Y5163159D01*
X5474106Y5151932D01*
X5466588Y5143500D01*
X5463133Y5141010D01*
X5458968Y5140096D01*
X5315712Y5140096D01*
X5311495Y5141010D01*
X5308041Y5143601D01*
X5297881Y5155285D01*
X5285740Y5166461D01*
X5272430Y5176113D01*
X5258054Y5184241D01*
X5242864Y5190693D01*
X5227015Y5195316D01*
X5210759Y5198110D01*
X5194300Y5199075D01*
X5177840Y5198110D01*
X5161584Y5195316D01*
X5145735Y5190693D01*
X5130546Y5184241D01*
X5116169Y5176113D01*
X5102860Y5166461D01*
X5090718Y5155285D01*
X5079898Y5142839D01*
X5070602Y5129225D01*
X5062880Y5114594D01*
X5056886Y5099253D01*
X5052720Y5083302D01*
X5050383Y5066944D01*
X5049875Y5050485D01*
X5050993Y5037378D01*
X5050434Y5033010D01*
X5048097Y5029301D01*
X4879949Y4861204D01*
X4875682Y4856581D01*
X4871872Y4851857D01*
X4868367Y4846828D01*
X4865268Y4841595D01*
X4862525Y4836109D01*
X4860188Y4830470D01*
X4858258Y4824679D01*
X4856734Y4818786D01*
X4855667Y4812792D01*
X4855006Y4806696D01*
X4854803Y4800396D01*
X4854803Y3519424D01*
X4854041Y3515563D01*
X4851806Y3512261D01*
X4196638Y2857042D01*
X4193336Y2854858D01*
X4189425Y2854096D01*
X3285286Y2854096D01*
X3281375Y2854858D01*
X3278073Y2857042D01*
X3271723Y2863443D01*
X3259632Y2872892D01*
X3246577Y2880817D01*
X3234232Y2886354D01*
X3231032Y2888589D01*
X3228949Y2891840D01*
X3228238Y2895600D01*
X3228949Y2899410D01*
X3231032Y2902661D01*
X3234232Y2904896D01*
X3246577Y2910433D01*
X3259632Y2918358D01*
X3271723Y2927807D01*
X3277971Y2934106D01*
X3281273Y2936290D01*
X3285185Y2937052D01*
X3962196Y2937052D01*
X3968496Y2937306D01*
X3974541Y2937967D01*
X3980535Y2939034D01*
X3986479Y2940558D01*
X3992270Y2942488D01*
X3997909Y2944774D01*
X4003344Y2947517D01*
X4008577Y2950667D01*
X4013606Y2954121D01*
X4018381Y2957931D01*
X4022953Y2962249D01*
X4479950Y3419195D01*
X4484217Y3423818D01*
X4488027Y3428542D01*
X4491532Y3433572D01*
X4494631Y3438804D01*
X4497374Y3444290D01*
X4499711Y3449929D01*
X4501642Y3455720D01*
X4503166Y3461613D01*
X4504232Y3467608D01*
X4504893Y3473704D01*
X4505096Y3480003D01*
X4505096Y4305096D01*
X4504893Y4311396D01*
X4504232Y4317492D01*
X4503166Y4323486D01*
X4501642Y4329379D01*
X4499711Y4335170D01*
X4497374Y4340809D01*
X4494631Y4346295D01*
X4491532Y4351528D01*
X4488027Y4356557D01*
X4484217Y4361281D01*
X4479950Y4365904D01*
X3894074Y4951730D01*
X3891889Y4955032D01*
X3891127Y4958943D01*
X3891889Y4962804D01*
X3894074Y4966106D01*
X3897376Y4968341D01*
X3901287Y4969103D01*
X3930243Y4969103D01*
X3933444Y4968595D01*
X3936288Y4967122D01*
X3950106Y4951780D01*
X3962654Y4940554D01*
X3976420Y4930800D01*
X3991203Y4922621D01*
X4006799Y4916170D01*
X4023004Y4911496D01*
X4039666Y4908651D01*
X4056532Y4907737D01*
X4073347Y4908651D01*
X4090009Y4911496D01*
X4106214Y4916170D01*
X4121810Y4922621D01*
X4136593Y4930800D01*
X4150360Y4940554D01*
X4162907Y4951780D01*
X4174185Y4964379D01*
X4177029Y4968443D01*
X4179265Y4970729D01*
X4182160Y4972202D01*
X4185310Y4972710D01*
X4577689Y4972710D01*
X4580839Y4972202D01*
X4583734Y4970729D01*
X4585970Y4968443D01*
X4588814Y4964379D01*
X4600092Y4951780D01*
X4612640Y4940554D01*
X4626406Y4930800D01*
X4641189Y4922621D01*
X4656785Y4916170D01*
X4672990Y4911496D01*
X4689652Y4908651D01*
X4706518Y4907737D01*
X4723333Y4908651D01*
X4739995Y4911496D01*
X4756200Y4916170D01*
X4771796Y4922621D01*
X4786579Y4930800D01*
X4800346Y4940554D01*
X4812893Y4951780D01*
X4824171Y4964379D01*
X4833924Y4978146D01*
X4842103Y4992928D01*
X4848555Y5008524D01*
X4853228Y5024729D01*
X4856022Y5041341D01*
X4856988Y5058206D01*
X4856022Y5075072D01*
X4853228Y5091684D01*
X4848555Y5107889D01*
X4842103Y5123484D01*
X4833924Y5138267D01*
X4824171Y5152034D01*
X4812893Y5164632D01*
X4800346Y5175859D01*
X4786579Y5185613D01*
X4771796Y5193792D01*
X4756200Y5200243D01*
X4739995Y5204917D01*
X4723333Y5207762D01*
X4706518Y5208676D01*
X4689652Y5207762D01*
X4672990Y5204917D01*
X4656785Y5200243D01*
X4641189Y5193792D01*
X4626406Y5185613D01*
X4612640Y5175859D01*
X4600092Y5164632D01*
X4588814Y5152034D01*
X4585970Y5148021D01*
X4583734Y5145684D01*
X4580839Y5144211D01*
X4577689Y5143703D01*
X4185310Y5143703D01*
X4182160Y5144211D01*
X4179265Y5145684D01*
X4177029Y5148021D01*
X4174185Y5152034D01*
X4162907Y5164632D01*
X4150360Y5175859D01*
X4136593Y5185613D01*
X4121810Y5193792D01*
X4106214Y5200243D01*
X4090009Y5204917D01*
X4073347Y5207762D01*
X4056532Y5208676D01*
X4039666Y5207762D01*
X4023004Y5204917D01*
X4006799Y5200243D01*
X3991203Y5193792D01*
X3976420Y5185613D01*
X3962654Y5175859D01*
X3950106Y5164632D01*
X3938828Y5152034D01*
X3933444Y5144363D01*
X3931158Y5142077D01*
X3928313Y5140604D01*
X3925112Y5140096D01*
X3791712Y5140096D01*
X3787495Y5141010D01*
X3784041Y5143601D01*
X3773881Y5155285D01*
X3761740Y5166461D01*
X3748430Y5176113D01*
X3734054Y5184241D01*
X3718864Y5190693D01*
X3703015Y5195316D01*
X3686759Y5198110D01*
X3670300Y5199075D01*
X3653840Y5198110D01*
X3637584Y5195316D01*
X3621735Y5190693D01*
X3606546Y5184241D01*
X3592169Y5176113D01*
X3578860Y5166461D01*
X3566718Y5155285D01*
X3555898Y5142839D01*
X3546601Y5129225D01*
X3538880Y5114594D01*
X3532886Y5099253D01*
X3528720Y5083302D01*
X3526383Y5066944D01*
X3525875Y5050485D01*
X3527298Y5034026D01*
X3530600Y5017871D01*
X3535679Y5002174D01*
X3542537Y4987188D01*
X3551021Y4973066D01*
X3561130Y4960010D01*
X3572611Y4948174D01*
X3585362Y4937709D01*
X3599281Y4928819D01*
X3614064Y4921504D01*
X3629609Y4915966D01*
X3645662Y4912258D01*
X3662070Y4910378D01*
X3678529Y4910378D01*
X3687165Y4911344D01*
X3690213Y4911242D01*
X3693109Y4910226D01*
X3695547Y4908448D01*
X4331106Y4272838D01*
X4333341Y4269536D01*
X4334103Y4265676D01*
X4334103Y3519424D01*
X4333341Y3515563D01*
X4331106Y3512261D01*
X3929938Y3111042D01*
X3926636Y3108858D01*
X3922725Y3108096D01*
X3285286Y3108096D01*
X3281375Y3108858D01*
X3278073Y3111042D01*
X3271723Y3117443D01*
X3259632Y3126892D01*
X3246577Y3134817D01*
X3234232Y3140354D01*
X3231032Y3142589D01*
X3228949Y3145840D01*
X3228238Y3149600D01*
X3228949Y3153410D01*
X3231032Y3156661D01*
X3234232Y3158896D01*
X3246577Y3164433D01*
X3259632Y3172358D01*
X3271723Y3181807D01*
X3277971Y3188106D01*
X3281273Y3190290D01*
X3285185Y3191052D01*
X3860596Y3191052D01*
X3866896Y3191306D01*
X3872941Y3191967D01*
X3878935Y3193034D01*
X3884879Y3194558D01*
X3890670Y3196488D01*
X3896309Y3198774D01*
X3901744Y3201517D01*
X3906977Y3204667D01*
X3912006Y3208121D01*
X3916781Y3211931D01*
X3921353Y3216249D01*
X4238650Y3533495D01*
X4242917Y3538118D01*
X4246727Y3542842D01*
X4250232Y3547872D01*
X4253331Y3553104D01*
X4256074Y3558590D01*
X4258411Y3564229D01*
X4260342Y3570020D01*
X4261866Y3575913D01*
X4262932Y3581908D01*
X4263593Y3588004D01*
X4263796Y3594303D01*
X4263796Y4062222D01*
X4263593Y4068521D01*
X4262932Y4074566D01*
X4261866Y4080560D01*
X4260342Y4086504D01*
X4258411Y4092295D01*
X4256074Y4097934D01*
X4253331Y4103370D01*
X4250232Y4108602D01*
X4246727Y4113631D01*
X4242917Y4118406D01*
X4238650Y4122978D01*
X3334054Y5027574D01*
X3332175Y5030216D01*
X3331159Y5033264D01*
X3331210Y5036464D01*
X3332022Y5041341D01*
X3332987Y5058206D01*
X3332022Y5075072D01*
X3329228Y5091684D01*
X3324555Y5107889D01*
X3318103Y5123484D01*
X3309924Y5138267D01*
X3300171Y5152034D01*
X3288893Y5164632D01*
X3276346Y5175859D01*
X3262579Y5185613D01*
X3247796Y5193792D01*
X3232200Y5200243D01*
X3215995Y5204917D01*
X3199333Y5207762D01*
X3182518Y5208676D01*
X3165652Y5207762D01*
X3148990Y5204917D01*
X3132785Y5200243D01*
X3117189Y5193792D01*
X3102406Y5185613D01*
X3088640Y5175859D01*
X3076092Y5164632D01*
X3064814Y5152034D01*
X3061970Y5148021D01*
X3059734Y5145684D01*
X3056839Y5144211D01*
X3053689Y5143703D01*
X2661310Y5143703D01*
X2658160Y5144211D01*
X2655265Y5145684D01*
X2653030Y5148021D01*
X2650185Y5152034D01*
X2638907Y5164632D01*
X2626360Y5175859D01*
X2612593Y5185613D01*
X2597810Y5193792D01*
X2582214Y5200243D01*
X2566009Y5204917D01*
X2549347Y5207762D01*
X2532532Y5208676D01*
X2515666Y5207762D01*
X2499004Y5204917D01*
X2482799Y5200243D01*
X2467203Y5193792D01*
X2452420Y5185613D01*
X2438654Y5175859D01*
X2426106Y5164632D01*
X2414828Y5152034D01*
X2409444Y5144363D01*
X2407158Y5142077D01*
X2404313Y5140604D01*
X2401112Y5140096D01*
X2267712Y5140096D01*
X2263495Y5141010D01*
X2260041Y5143601D01*
X2249881Y5155285D01*
X2237740Y5166461D01*
X2224430Y5176113D01*
X2210054Y5184241D01*
X2194864Y5190693D01*
X2179015Y5195316D01*
X2162759Y5198110D01*
X2146300Y5199075D01*
X2129840Y5198110D01*
X2113584Y5195316D01*
X2097735Y5190693D01*
X2082546Y5184241D01*
X2068169Y5176113D01*
X2054860Y5166461D01*
X2042718Y5155285D01*
X2031898Y5142839D01*
X2022602Y5129225D01*
X2014880Y5114594D01*
X2008886Y5099253D01*
X2004720Y5083302D01*
X2002383Y5066944D01*
X2001875Y5050485D01*
X2003298Y5034026D01*
X2006600Y5017871D01*
X2011680Y5002174D01*
X2018538Y4987188D01*
X2027021Y4973066D01*
X2037130Y4960010D01*
X2048611Y4948174D01*
X2061362Y4937709D01*
X2075281Y4928819D01*
X2090064Y4921504D01*
X2105609Y4915966D01*
X2121662Y4912258D01*
X2138070Y4910378D01*
X2154529Y4910378D01*
X2170938Y4912258D01*
X2186990Y4915966D01*
X2202535Y4921504D01*
X2217318Y4928819D01*
X2231237Y4937709D01*
X2243988Y4948174D01*
X2255469Y4960010D01*
X2259431Y4965141D01*
X2261666Y4967274D01*
X2264460Y4968646D01*
X2267508Y4969103D01*
X2406243Y4969103D01*
X2409444Y4968595D01*
X2412288Y4967122D01*
X2426106Y4951780D01*
X2438654Y4940554D01*
X2452420Y4930800D01*
X2467203Y4922621D01*
X2482799Y4916170D01*
X2499004Y4911496D01*
X2515666Y4908651D01*
X2532532Y4907737D01*
X2549347Y4908651D01*
X2566009Y4911496D01*
X2582214Y4916170D01*
X2597810Y4922621D01*
X2612593Y4930800D01*
X2626360Y4940554D01*
X2638907Y4951780D01*
X2650185Y4964379D01*
X2653030Y4968443D01*
X2655265Y4970729D01*
X2658160Y4972202D01*
X2661310Y4972710D01*
X3053689Y4972710D01*
X3056839Y4972202D01*
X3059734Y4970729D01*
X3061970Y4968443D01*
X3064814Y4964379D01*
X3076092Y4951780D01*
X3088640Y4940554D01*
X3102406Y4930800D01*
X3117189Y4922621D01*
X3132785Y4916170D01*
X3148990Y4911496D01*
X3165652Y4908651D01*
X3182518Y4907737D01*
X3199333Y4908651D01*
X3204210Y4909515D01*
X3207461Y4909515D01*
X3210509Y4908550D01*
X3213100Y4906670D01*
X4089806Y4029964D01*
X4092041Y4026662D01*
X4092803Y4022750D01*
X4092803Y3633724D01*
X4092041Y3629863D01*
X4089806Y3626561D01*
X3828338Y3365042D01*
X3825036Y3362858D01*
X3821125Y3362096D01*
X3285286Y3362096D01*
X3281375Y3362858D01*
X3278073Y3365042D01*
X3271723Y3371443D01*
X3259632Y3380892D01*
X3246577Y3388817D01*
X3234232Y3394354D01*
X3231032Y3396589D01*
X3228949Y3399840D01*
X3228238Y3403600D01*
X3228949Y3407410D01*
X3231032Y3410661D01*
X3234232Y3412896D01*
X3246577Y3418433D01*
X3259632Y3426358D01*
X3271723Y3435807D01*
X3277971Y3442106D01*
X3281273Y3444290D01*
X3285185Y3445052D01*
X3670096Y3445052D01*
X3676396Y3445306D01*
X3682441Y3445967D01*
X3688435Y3447034D01*
X3694379Y3448558D01*
X3700170Y3450488D01*
X3705809Y3452774D01*
X3711244Y3455517D01*
X3716477Y3458667D01*
X3721506Y3462121D01*
X3726281Y3465931D01*
X3730853Y3470249D01*
X3844950Y3584295D01*
X3849217Y3588918D01*
X3853027Y3593642D01*
X3856532Y3598672D01*
X3859631Y3603904D01*
X3862374Y3609390D01*
X3864711Y3615029D01*
X3866642Y3620820D01*
X3868165Y3626713D01*
X3869232Y3632708D01*
X3869893Y3638804D01*
X3870096Y3645103D01*
X3870096Y4012996D01*
X3869893Y4019296D01*
X3869232Y4025392D01*
X3868165Y4031386D01*
X3866642Y4037279D01*
X3864711Y4043070D01*
X3862374Y4048709D01*
X3859631Y4054195D01*
X3856532Y4059428D01*
X3853027Y4064457D01*
X3849217Y4069181D01*
X3844950Y4073804D01*
X3400704Y4518050D01*
X3396081Y4522317D01*
X3391357Y4526127D01*
X3386328Y4529632D01*
X3381095Y4532731D01*
X3375609Y4535474D01*
X3369970Y4537811D01*
X3364179Y4539742D01*
X3358286Y4541266D01*
X3352292Y4542332D01*
X3346196Y4542993D01*
X3339896Y4543196D01*
X2298649Y4543196D01*
X2294737Y4543958D01*
X2291435Y4546193D01*
X1810054Y5027574D01*
X1808175Y5030216D01*
X1807159Y5033264D01*
X1807210Y5036464D01*
X1808022Y5041341D01*
X1808988Y5058206D01*
X1808022Y5075072D01*
X1805228Y5091684D01*
X1800555Y5107889D01*
X1794103Y5123484D01*
X1785924Y5138267D01*
X1776171Y5152034D01*
X1764893Y5164632D01*
X1752346Y5175859D01*
X1738579Y5185613D01*
X1723796Y5193792D01*
X1708200Y5200243D01*
X1691995Y5204917D01*
X1675333Y5207762D01*
X1658518Y5208676D01*
X1641652Y5207762D01*
X1624990Y5204917D01*
X1608785Y5200243D01*
X1593189Y5193792D01*
X1578406Y5185613D01*
X1564640Y5175859D01*
X1552092Y5164632D01*
X1540814Y5152034D01*
X1537970Y5148021D01*
X1535734Y5145684D01*
X1532839Y5144211D01*
X1529689Y5143703D01*
X1137310Y5143703D01*
X1134160Y5144211D01*
X1131265Y5145684D01*
X1129030Y5148021D01*
X1126185Y5152034D01*
X1114907Y5164632D01*
X1102360Y5175859D01*
X1088593Y5185613D01*
X1073810Y5193792D01*
X1058214Y5200243D01*
X1042009Y5204917D01*
X1025347Y5207762D01*
X1008532Y5208676D01*
X991666Y5207762D01*
X975004Y5204917D01*
X958799Y5200243D01*
X943203Y5193792D01*
X928420Y5185613D01*
X914653Y5175859D01*
X902106Y5164632D01*
X890828Y5152034D01*
X885444Y5144363D01*
X883158Y5142077D01*
X880313Y5140604D01*
X877112Y5140096D01*
X743712Y5140096D01*
X739495Y5141010D01*
X736041Y5143601D01*
X725881Y5155285D01*
X713740Y5166461D01*
X700430Y5176113D01*
X686054Y5184241D01*
X670864Y5190693D01*
X655015Y5195316D01*
X638759Y5198110D01*
X622300Y5199075D01*
X605840Y5198110D01*
X589584Y5195316D01*
X573735Y5190693D01*
X558546Y5184241D01*
X544169Y5176113D01*
X530860Y5166461D01*
X518718Y5155285D01*
X507898Y5142839D01*
X498601Y5129225D01*
X490880Y5114594D01*
X484885Y5099253D01*
X480720Y5083302D01*
X478383Y5066944D01*
X477875Y5050485D01*
X479298Y5034026D01*
X482600Y5017871D01*
X487680Y5002174D01*
X494538Y4987188D01*
X503021Y4973066D01*
X513130Y4960010D01*
X524611Y4948174D01*
X537362Y4937709D01*
X551281Y4928819D01*
X566064Y4921504D01*
X581609Y4915966D01*
X597662Y4912258D01*
X614070Y4910378D01*
X630529Y4910378D01*
X646938Y4912258D01*
X662990Y4915966D01*
X678535Y4921504D01*
X693318Y4928819D01*
X707237Y4937709D01*
X719988Y4948174D01*
X731469Y4960010D01*
X735431Y4965141D01*
X737666Y4967274D01*
X740460Y4968646D01*
X743508Y4969103D01*
X882243Y4969103D01*
X885444Y4968595D01*
X888288Y4967122D01*
X902106Y4951780D01*
X914653Y4940554D01*
X928420Y4930800D01*
X943203Y4922621D01*
X958799Y4916170D01*
X975004Y4911496D01*
X991666Y4908651D01*
X1008532Y4907737D01*
X1025347Y4908651D01*
X1042009Y4911496D01*
X1058214Y4916170D01*
X1073810Y4922621D01*
X1088593Y4930800D01*
X1102360Y4940554D01*
X1114907Y4951780D01*
X1126185Y4964379D01*
X1129030Y4968443D01*
X1131265Y4970729D01*
X1134160Y4972202D01*
X1137310Y4972710D01*
X1529689Y4972710D01*
X1532839Y4972202D01*
X1535734Y4970729D01*
X1537970Y4968443D01*
X1540814Y4964379D01*
X1552092Y4951780D01*
X1564640Y4940554D01*
X1578406Y4930800D01*
X1593189Y4922621D01*
X1608785Y4916170D01*
X1624990Y4911496D01*
X1641652Y4908651D01*
X1658518Y4907737D01*
X1675333Y4908651D01*
X1680210Y4909515D01*
X1683461Y4909515D01*
X1686509Y4908550D01*
X1689100Y4906670D01*
X2198420Y4397349D01*
X2202992Y4393082D01*
X2207768Y4389272D01*
X2212797Y4385767D01*
X2218029Y4382668D01*
X2223465Y4379925D01*
X2229104Y4377588D01*
X2234895Y4375658D01*
X2240838Y4374134D01*
X2246833Y4373067D01*
X2252878Y4372406D01*
X2259177Y4372203D01*
X3300476Y4372203D01*
X3304336Y4371441D01*
X3307638Y4369206D01*
X3696106Y3980738D01*
X3698341Y3977436D01*
X3699103Y3973576D01*
X3699103Y3684524D01*
X3698341Y3680663D01*
X3696106Y3677361D01*
X3637838Y3619042D01*
X3634536Y3616858D01*
X3630625Y3616096D01*
X3285286Y3616096D01*
X3281375Y3616858D01*
X3278073Y3619042D01*
X3271723Y3625443D01*
X3259632Y3634892D01*
X3252774Y3639058D01*
X3249574Y3642055D01*
X3247999Y3646119D01*
X3248202Y3650487D01*
X3250285Y3654348D01*
X3253740Y3656990D01*
X3258007Y3657904D01*
X3263442Y3657904D01*
X3272637Y3658717D01*
X3281172Y3661003D01*
X3289096Y3664712D01*
X3296310Y3669741D01*
X3302558Y3675989D01*
X3307587Y3683203D01*
X3311296Y3691178D01*
X3313582Y3699662D01*
X3314395Y3708857D01*
X3314395Y3860393D01*
X3313582Y3869588D01*
X3311296Y3878072D01*
X3307587Y3886047D01*
X3302558Y3893261D01*
X3296310Y3899509D01*
X3289096Y3904538D01*
X3281172Y3908247D01*
X3272637Y3910533D01*
X3263442Y3911346D01*
X3111906Y3911346D01*
X3102711Y3910533D01*
X3094228Y3908247D01*
X3086252Y3904538D01*
X3079038Y3899509D01*
X3072841Y3893261D01*
X3067761Y3886047D01*
X3063951Y3877665D01*
X3061919Y3873754D01*
X3058414Y3871061D01*
X3054146Y3870096D01*
X2762808Y3870096D01*
X2758440Y3871112D01*
X2754934Y3873855D01*
X2748026Y3882288D01*
X2736189Y3893769D01*
X2723134Y3903878D01*
X2709011Y3912362D01*
X2694025Y3919220D01*
X2678328Y3924300D01*
X2662174Y3927601D01*
X2645714Y3929024D01*
X2629255Y3928516D01*
X2612898Y3926179D01*
X2596946Y3922014D01*
X2581605Y3916019D01*
X2566974Y3908298D01*
X2553360Y3899001D01*
X2540914Y3888181D01*
X2529738Y3876040D01*
X2520086Y3862730D01*
X2511958Y3848354D01*
X2505506Y3833164D01*
X2500884Y3817315D01*
X2498090Y3801059D01*
X2497124Y3784600D01*
X2498090Y3768140D01*
X2500884Y3751884D01*
X2505506Y3736035D01*
X2511958Y3720846D01*
X2520086Y3706469D01*
X2529738Y3693160D01*
X2540914Y3681018D01*
X2553360Y3670198D01*
X2559151Y3666236D01*
X2561539Y3664000D01*
X2563063Y3661105D01*
X2563571Y3657854D01*
X2563571Y3338322D01*
X2563063Y3335121D01*
X2561590Y3332276D01*
X2559304Y3330041D01*
X2555240Y3327146D01*
X2542692Y3315919D01*
X2531414Y3303320D01*
X2528570Y3299256D01*
X2526334Y3296970D01*
X2523439Y3295497D01*
X2520289Y3294989D01*
X2127910Y3294989D01*
X2124760Y3295497D01*
X2121865Y3296970D01*
X2119630Y3299256D01*
X2116785Y3303320D01*
X2105507Y3315919D01*
X2092960Y3327146D01*
X2079193Y3336899D01*
X2064410Y3345078D01*
X2048814Y3351529D01*
X2032609Y3356203D01*
X2015947Y3359048D01*
X1999132Y3359962D01*
X1982266Y3359048D01*
X1965604Y3356203D01*
X1949399Y3351529D01*
X1933803Y3345078D01*
X1919020Y3336899D01*
X1905254Y3327146D01*
X1892706Y3315919D01*
X1881428Y3303320D01*
X1878584Y3299256D01*
X1876348Y3296970D01*
X1873453Y3295497D01*
X1870303Y3294989D01*
X1522171Y3294989D01*
X1515872Y3294786D01*
X1509826Y3294126D01*
X1503832Y3293059D01*
X1497888Y3291535D01*
X1492097Y3289604D01*
X1486458Y3287268D01*
X1481023Y3284524D01*
X1475790Y3281426D01*
X1470761Y3277920D01*
X1465986Y3274110D01*
X1461414Y3269843D01*
X1393901Y3202330D01*
X1390904Y3200247D01*
X1387348Y3199384D01*
X1382522Y3199079D01*
X1368298Y3196336D01*
X1354480Y3191865D01*
X1341374Y3185718D01*
X1329131Y3177946D01*
X1317955Y3168700D01*
X1307998Y3158134D01*
X1299514Y3146399D01*
X1292504Y3133648D01*
X1287170Y3120186D01*
X1283563Y3106115D01*
X1281734Y3091738D01*
X1281734Y3077260D01*
X1283563Y3062884D01*
X1287170Y3048812D01*
X1292504Y3035350D01*
X1299514Y3022600D01*
X1307998Y3010865D01*
X1317955Y3000298D01*
X1327607Y2992323D01*
X1330299Y2988818D01*
X1331264Y2984500D01*
X1330299Y2980182D01*
X1327607Y2976676D01*
X1317955Y2968701D01*
X1307998Y2958134D01*
X1299514Y2946400D01*
X1292504Y2933649D01*
X1288440Y2923336D01*
X1358138Y2923336D01*
X1358138Y2962300D01*
X1359103Y2966618D01*
X1361846Y2970123D01*
X1365808Y2972155D01*
X1370228Y2972257D01*
X1382522Y2969920D01*
X1397000Y2969006D01*
X1411478Y2969920D01*
X1423771Y2972257D01*
X1428242Y2972155D01*
X1432153Y2970123D01*
X1434896Y2966618D01*
X1435862Y2962300D01*
X1435862Y2923336D01*
X1505559Y2923336D01*
X1501495Y2933649D01*
X1494485Y2946400D01*
X1486001Y2958134D01*
X1476044Y2968701D01*
X1466392Y2976676D01*
X1463700Y2980182D01*
X1462735Y2984500D01*
X1463700Y2988818D01*
X1466392Y2992323D01*
X1476044Y3000298D01*
X1486001Y3010865D01*
X1494485Y3022600D01*
X1501495Y3035350D01*
X1506829Y3048812D01*
X1510436Y3062884D01*
X1512062Y3075635D01*
X1513027Y3078784D01*
X1514957Y3081528D01*
X1554429Y3120999D01*
X1557731Y3123184D01*
X1561642Y3123996D01*
X1870303Y3123996D01*
X1873453Y3123488D01*
X1876348Y3122015D01*
X1878584Y3119678D01*
X1881428Y3115665D01*
X1892706Y3103067D01*
X1905254Y3091840D01*
X1919020Y3082086D01*
X1933803Y3073908D01*
X1949399Y3067456D01*
X1965604Y3062782D01*
X1982266Y3059938D01*
X1999132Y3059023D01*
X2015947Y3059938D01*
X2032609Y3062782D01*
X2048814Y3067456D01*
X2064410Y3073908D01*
X2079193Y3082086D01*
X2092960Y3091840D01*
X2105507Y3103067D01*
X2116785Y3115665D01*
X2119630Y3119729D01*
X2121865Y3122015D01*
X2124760Y3123488D01*
X2127910Y3123996D01*
X2520289Y3123996D01*
X2523439Y3123488D01*
X2526334Y3122015D01*
X2528570Y3119729D01*
X2531414Y3115665D01*
X2542692Y3103067D01*
X2555240Y3091840D01*
X2569006Y3082086D01*
X2583789Y3073908D01*
X2599385Y3067456D01*
X2615590Y3062782D01*
X2632252Y3059938D01*
X2649118Y3059023D01*
X2665933Y3059938D01*
X2682595Y3062782D01*
X2698800Y3067456D01*
X2714396Y3073908D01*
X2729179Y3082086D01*
X2742946Y3091840D01*
X2755493Y3103067D01*
X2766771Y3115665D01*
X2776524Y3129432D01*
X2784703Y3144215D01*
X2791155Y3159810D01*
X2795828Y3176016D01*
X2798622Y3192627D01*
X2799588Y3209493D01*
X2798622Y3226358D01*
X2795828Y3242970D01*
X2791155Y3259175D01*
X2784703Y3274771D01*
X2776524Y3289554D01*
X2766771Y3303320D01*
X2755493Y3315919D01*
X2742946Y3327146D01*
X2738882Y3330041D01*
X2736596Y3332276D01*
X2735122Y3335121D01*
X2734614Y3338322D01*
X2734614Y3669537D01*
X2735427Y3673500D01*
X2737662Y3676853D01*
X2748026Y3686911D01*
X2754934Y3695344D01*
X2758440Y3698138D01*
X2762808Y3699103D01*
X3054146Y3699103D01*
X3058414Y3698138D01*
X3061919Y3695496D01*
X3067761Y3683203D01*
X3072841Y3675989D01*
X3079038Y3669741D01*
X3086252Y3664712D01*
X3094228Y3661003D01*
X3102711Y3658717D01*
X3111906Y3657904D01*
X3117392Y3657904D01*
X3121609Y3656990D01*
X3125114Y3654348D01*
X3127146Y3650487D01*
X3127400Y3646119D01*
X3125774Y3642055D01*
X3122625Y3639058D01*
X3115716Y3634892D01*
X3103676Y3625443D01*
X3092856Y3614623D01*
X3083407Y3602583D01*
X3075533Y3589477D01*
X3069234Y3575558D01*
X3064662Y3560927D01*
X3061919Y3545890D01*
X3061004Y3530600D01*
X3061919Y3515360D01*
X3064662Y3500323D01*
X3069234Y3485692D01*
X3075533Y3471773D01*
X3083407Y3458667D01*
X3092856Y3446627D01*
X3103676Y3435807D01*
X3115716Y3426358D01*
X3128822Y3418433D01*
X3141167Y3412896D01*
X3144316Y3410661D01*
X3146399Y3407410D01*
X3147161Y3403600D01*
X3146399Y3399840D01*
X3144316Y3396589D01*
X3141167Y3394354D01*
X3128822Y3388817D01*
X3115716Y3380892D01*
X3103676Y3371443D01*
X3092856Y3360623D01*
X3083407Y3348583D01*
X3075533Y3335477D01*
X3069234Y3321558D01*
X3064662Y3306927D01*
X3061919Y3291890D01*
X3061004Y3276600D01*
X3061919Y3261360D01*
X3064662Y3246323D01*
X3069234Y3231692D01*
X3075533Y3217773D01*
X3083407Y3204667D01*
X3092856Y3192627D01*
X3103676Y3181807D01*
X3115716Y3172358D01*
X3128822Y3164433D01*
X3141167Y3158896D01*
X3144316Y3156661D01*
X3146399Y3153410D01*
X3147161Y3149600D01*
X3146399Y3145840D01*
X3144316Y3142589D01*
X3141167Y3140354D01*
X3128822Y3134817D01*
X3115716Y3126892D01*
X3103676Y3117443D01*
X3092856Y3106623D01*
X3083407Y3094583D01*
X3075533Y3081477D01*
X3069234Y3067558D01*
X3064662Y3052927D01*
X3061919Y3037890D01*
X3061004Y3022600D01*
X3061919Y3007360D01*
X3064662Y2992323D01*
X3069234Y2977692D01*
X3075533Y2963773D01*
X3083407Y2950667D01*
X3092856Y2938627D01*
X3103676Y2927807D01*
X3115716Y2918358D01*
X3128822Y2910433D01*
X3141167Y2904896D01*
X3144316Y2902661D01*
X3146399Y2899410D01*
X3147161Y2895600D01*
X3146399Y2891840D01*
X3144316Y2888589D01*
X3141167Y2886354D01*
X3128822Y2880817D01*
X3115716Y2872892D01*
X3103676Y2863443D01*
X3092856Y2852623D01*
X3083407Y2840583D01*
X3075533Y2827477D01*
X3069234Y2813558D01*
X3064662Y2798927D01*
X3061919Y2783890D01*
X3061004Y2768600D01*
X3061919Y2753360D01*
X3064662Y2738323D01*
X3069234Y2723692D01*
X3075533Y2709773D01*
X3083407Y2696667D01*
X3092856Y2684627D01*
X3103676Y2673807D01*
X3115716Y2664358D01*
X3128822Y2656433D01*
X3141167Y2650896D01*
X3144316Y2648661D01*
X3146399Y2645410D01*
X3147161Y2641600D01*
X3146399Y2637840D01*
X3144316Y2634589D01*
X3141167Y2632354D01*
X3128822Y2626817D01*
X3115716Y2618892D01*
X3103676Y2609443D01*
X3092856Y2598623D01*
X3083407Y2586583D01*
X3075533Y2573477D01*
X3069234Y2559558D01*
X3064662Y2544927D01*
X3061919Y2529890D01*
X3061004Y2514600D01*
X3061919Y2499360D01*
X3064662Y2484323D01*
X3069234Y2469692D01*
X3075533Y2455773D01*
X3083407Y2442667D01*
X3092856Y2430627D01*
X3103676Y2419807D01*
X3115716Y2410358D01*
X3128822Y2402433D01*
X3141167Y2396896D01*
X3144316Y2394661D01*
X3146399Y2391410D01*
X3147161Y2387600D01*
X3146399Y2383840D01*
X3144316Y2380589D01*
X3141167Y2378354D01*
X3128822Y2372817D01*
X3115716Y2364892D01*
X3103676Y2355443D01*
X3092856Y2344623D01*
X3083407Y2332583D01*
X3075533Y2319477D01*
X3069234Y2305558D01*
X3064662Y2290927D01*
X3061919Y2275890D01*
X3061004Y2260600D01*
X3061919Y2245360D01*
X3064662Y2230323D01*
X3069234Y2215692D01*
X3075533Y2201773D01*
X3083407Y2188667D01*
X3092856Y2176627D01*
X3103676Y2165807D01*
X3115716Y2156358D01*
X3128822Y2148433D01*
X3141167Y2142896D01*
X3144316Y2140661D01*
X3146399Y2137410D01*
X3147161Y2133600D01*
X3146399Y2129840D01*
X3144316Y2126589D01*
X3141167Y2124354D01*
X3128822Y2118817D01*
X3115716Y2110892D01*
X3103676Y2101443D01*
X3092856Y2090623D01*
X3083407Y2078583D01*
X3075533Y2065477D01*
X3069234Y2051557D01*
X3064662Y2036927D01*
X3061919Y2021890D01*
X3061004Y2006600D01*
X3061919Y1991360D01*
X3064662Y1976323D01*
X3069234Y1961692D01*
X3075533Y1947773D01*
X3083407Y1934667D01*
X3092856Y1922627D01*
X3103676Y1911807D01*
X3115716Y1902358D01*
X3128822Y1894433D01*
X3141167Y1888896D01*
X3144316Y1886661D01*
X3146399Y1883410D01*
X3147161Y1879600D01*
X3146399Y1875840D01*
X3144316Y1872589D01*
X3141167Y1870354D01*
X3128822Y1864817D01*
X3115716Y1856892D01*
X3103676Y1847443D01*
X3092856Y1836623D01*
X3083407Y1824583D01*
X3075533Y1811477D01*
X3069234Y1797557D01*
X3064662Y1782927D01*
X3061919Y1767890D01*
X3061004Y1752600D01*
X3061919Y1737360D01*
X3064662Y1722323D01*
X3069234Y1707692D01*
X3075533Y1693773D01*
X3083407Y1680667D01*
X3092856Y1668627D01*
X3103676Y1657807D01*
X3115716Y1648358D01*
X3128822Y1640433D01*
X3141167Y1634896D01*
X3144316Y1632661D01*
X3146399Y1629410D01*
X3147161Y1625600D01*
X3146399Y1621840D01*
X3144316Y1618589D01*
X3141167Y1616354D01*
X3128822Y1610817D01*
X3115716Y1602892D01*
X3103676Y1593443D01*
X3092856Y1582623D01*
X3083407Y1570583D01*
X3075533Y1557477D01*
X3069234Y1543558D01*
X3064662Y1528927D01*
X3061919Y1513890D01*
X3061004Y1498600D01*
X3061919Y1483360D01*
X3064662Y1468323D01*
X3069234Y1453692D01*
X3075533Y1439773D01*
X3083407Y1426667D01*
X3092856Y1414627D01*
X3103676Y1403807D01*
X3115716Y1394358D01*
X3128822Y1386433D01*
X3141167Y1380896D01*
X3144316Y1378661D01*
X3146399Y1375410D01*
X3147161Y1371600D01*
X3146399Y1367840D01*
X3144316Y1364589D01*
X3141167Y1362354D01*
X3128822Y1356817D01*
X3115716Y1348892D01*
X3103676Y1339443D01*
X3092856Y1328623D01*
X3083407Y1316583D01*
X3075533Y1303477D01*
X3069234Y1289558D01*
X3064662Y1274927D01*
X3061919Y1259890D01*
X3061004Y1244600D01*
X3061919Y1229360D01*
X3064662Y1214323D01*
X3069234Y1199692D01*
X3075533Y1185773D01*
X3083407Y1172667D01*
X3092856Y1160627D01*
X3103676Y1149807D01*
X3115716Y1140358D01*
X3128822Y1132433D01*
X3141167Y1126896D01*
X3144316Y1124661D01*
X3146399Y1121410D01*
X3147161Y1117600D01*
X3146399Y1113840D01*
X3144316Y1110589D01*
X3141167Y1108354D01*
X3128822Y1102817D01*
X3115716Y1094892D01*
X3103676Y1085443D01*
X3092856Y1074623D01*
X3083407Y1062583D01*
X3075533Y1049477D01*
X3069234Y1035558D01*
X3064662Y1020927D01*
X3061919Y1005890D01*
X3061004Y990600D01*
X3061919Y975360D01*
X3064662Y960323D01*
X3069234Y945692D01*
X3075533Y931773D01*
X3083407Y918667D01*
X3092856Y906627D01*
X3103676Y895807D01*
X3115716Y886358D01*
X3128822Y878433D01*
X3141167Y872896D01*
X3144316Y870661D01*
X3146399Y867410D01*
X3147161Y863600D01*
X3146399Y859840D01*
X3144316Y856589D01*
X3141167Y854354D01*
X3128822Y848817D01*
X3115716Y840892D01*
X3103676Y831443D01*
X3092856Y820623D01*
X3083407Y808583D01*
X3075533Y795477D01*
X3069234Y781558D01*
X3064662Y766927D01*
X3061919Y751890D01*
X3061004Y736600D01*
X3061919Y721360D01*
X3064662Y706323D01*
X3069234Y691692D01*
X3075533Y677773D01*
X3083407Y664667D01*
X3092856Y652627D01*
X3103676Y641807D01*
X3115716Y632358D01*
X3128822Y624433D01*
X3141167Y618896D01*
X3144316Y616661D01*
X3146399Y613410D01*
X3147161Y609600D01*
X3146399Y605840D01*
X3144316Y602589D01*
X3141167Y600354D01*
X3128822Y594817D01*
X3115716Y586892D01*
X3103676Y577443D01*
X3092856Y566623D01*
X3083407Y554583D01*
X3075533Y541477D01*
X3069234Y527558D01*
X3064662Y512927D01*
X3061919Y497890D01*
X3061004Y482600D01*
X3061919Y467359D01*
X3064662Y452323D01*
X3069234Y437692D01*
X3075533Y423773D01*
X3083407Y410667D01*
X3092856Y398627D01*
X3103676Y387807D01*
X3115716Y378358D01*
X3128822Y370433D01*
X3141167Y364896D01*
X3144316Y362661D01*
X3146399Y359410D01*
X3147161Y355600D01*
X3146399Y351840D01*
X3144316Y348589D01*
X3141167Y346354D01*
X3128822Y340817D01*
X3115716Y332892D01*
X3103676Y323443D01*
X3092856Y312623D01*
X3083407Y300583D01*
X3075533Y287477D01*
X3069234Y273558D01*
X3064662Y258927D01*
X3061919Y243890D01*
X3061004Y228600D01*
X3061919Y213360D01*
X3064662Y198323D01*
X3069234Y183692D01*
X3075533Y169773D01*
X3083407Y156667D01*
X3092856Y144627D01*
X3103676Y133807D01*
X3115716Y124358D01*
X3128822Y116433D01*
X3142742Y110185D01*
X3157372Y105613D01*
X3172409Y102870D01*
X3187700Y101955D01*
X3202940Y102870D01*
X3218027Y105613D01*
X3232607Y110185D01*
X3246577Y116433D01*
X3259632Y124358D01*
X3271723Y133807D01*
X3282492Y144627D01*
X3291941Y156667D01*
X3299866Y169773D01*
X3306165Y183692D01*
X3310686Y198323D01*
X3313429Y213360D01*
X3314395Y228600D01*
X3313429Y243890D01*
X3310686Y258927D01*
X3306165Y273558D01*
X3299866Y287477D01*
X3291941Y300583D01*
X3282492Y312623D01*
X3271723Y323443D01*
X3259632Y332892D01*
X3246577Y340817D01*
X3234232Y346354D01*
X3231032Y348589D01*
X3228949Y351840D01*
X3228238Y355600D01*
X3228949Y359410D01*
X3231032Y362661D01*
X3234232Y364896D01*
X3246577Y370433D01*
X3259632Y378358D01*
X3271723Y387807D01*
X3282492Y398627D01*
X3291941Y410667D01*
X3299866Y423773D01*
X3306165Y437692D01*
X3310686Y452323D01*
X3313429Y467359D01*
X3314395Y482600D01*
X3313429Y497890D01*
X3310686Y512927D01*
X3306165Y527558D01*
X3299866Y541477D01*
X3291941Y554583D01*
X3282492Y566623D01*
X3271723Y577443D01*
X3259632Y586892D01*
X3246577Y594817D01*
X3234232Y600354D01*
X3231032Y602589D01*
X3228949Y605840D01*
X3228238Y609600D01*
X3228949Y613410D01*
X3231032Y616661D01*
X3234232Y618896D01*
X3246577Y624433D01*
X3259632Y632358D01*
X3271723Y641807D01*
X3282492Y652627D01*
X3291941Y664667D01*
X3299866Y677773D01*
X3306165Y691692D01*
X3310686Y706323D01*
X3313429Y721360D01*
X3314395Y736600D01*
X3313429Y751890D01*
X3310686Y766927D01*
X3306165Y781558D01*
X3299866Y795477D01*
X3291941Y808583D01*
X3282492Y820623D01*
X3271723Y831443D01*
X3259632Y840892D01*
X3246577Y848817D01*
X3234232Y854354D01*
X3231032Y856589D01*
X3228949Y859840D01*
X3228238Y863600D01*
X3228949Y867410D01*
X3231032Y870661D01*
X3234232Y872896D01*
X3246577Y878433D01*
X3259632Y886358D01*
X3271723Y895807D01*
X3282492Y906627D01*
X3291941Y918667D01*
X3299866Y931773D01*
X3306165Y945692D01*
X3310686Y960323D01*
X3313429Y975360D01*
X3314395Y990600D01*
X3313429Y1005890D01*
X3310686Y1020927D01*
X3306165Y1035558D01*
X3299866Y1049477D01*
X3291941Y1062583D01*
X3282492Y1074623D01*
X3271723Y1085443D01*
X3259632Y1094892D01*
X3246577Y1102817D01*
X3234232Y1108354D01*
X3231032Y1110589D01*
X3228949Y1113840D01*
X3228238Y1117600D01*
X3228949Y1121410D01*
X3231032Y1124661D01*
X3234232Y1126896D01*
X3246577Y1132433D01*
X3259632Y1140358D01*
X3271723Y1149807D01*
X3282492Y1160627D01*
X3291941Y1172667D01*
X3299866Y1185773D01*
X3306165Y1199692D01*
X3310686Y1214323D01*
X3313429Y1229360D01*
X3314395Y1244600D01*
X3313429Y1259890D01*
X3310686Y1274927D01*
X3306165Y1289558D01*
X3299866Y1303477D01*
X3291941Y1316583D01*
X3282492Y1328623D01*
X3271723Y1339443D01*
X3259632Y1348892D01*
X3246577Y1356817D01*
X3234232Y1362354D01*
X3231032Y1364589D01*
X3228949Y1367840D01*
X3228238Y1371600D01*
X3228949Y1375410D01*
X3231032Y1378661D01*
X3234232Y1380896D01*
X3246577Y1386433D01*
X3259632Y1394358D01*
X3271723Y1403807D01*
X3282492Y1414627D01*
X3291941Y1426667D01*
X3299866Y1439773D01*
X3306165Y1453692D01*
X3310686Y1468323D01*
X3313429Y1483360D01*
X3314395Y1498600D01*
X3313429Y1513890D01*
X3310686Y1528927D01*
X3306165Y1543558D01*
X3299866Y1557477D01*
X3291941Y1570583D01*
X3282492Y1582623D01*
X3271723Y1593443D01*
X3259632Y1602892D01*
X3246577Y1610817D01*
X3234232Y1616354D01*
X3231032Y1618589D01*
X3228949Y1621840D01*
X3228238Y1625600D01*
X3228949Y1629410D01*
X3231032Y1632661D01*
X3234232Y1634896D01*
X3246577Y1640433D01*
X3259632Y1648358D01*
X3271723Y1657807D01*
X3282492Y1668627D01*
X3291941Y1680667D01*
X3299866Y1693773D01*
X3306165Y1707692D01*
X3310686Y1722323D01*
X3313429Y1737360D01*
X3314395Y1752600D01*
X3313429Y1767890D01*
X3310686Y1782927D01*
X3306165Y1797557D01*
X3299866Y1811477D01*
X3291941Y1824583D01*
X3282492Y1836623D01*
X3271723Y1847443D01*
X3259632Y1856892D01*
X3246577Y1864817D01*
X3234232Y1870354D01*
X3231032Y1872589D01*
X3228949Y1875840D01*
X3228238Y1879600D01*
X3228949Y1883410D01*
X3231032Y1886661D01*
X3234232Y1888896D01*
X3246577Y1894433D01*
X3259632Y1902358D01*
X3271723Y1911807D01*
X3282492Y1922627D01*
X3291941Y1934667D01*
X3299866Y1947773D01*
X3306165Y1961692D01*
X3310686Y1976323D01*
X3313429Y1991360D01*
X3314395Y2006600D01*
X3313429Y2021890D01*
X3310686Y2036927D01*
X3306165Y2051557D01*
X3299866Y2065477D01*
X3291941Y2078583D01*
X3282492Y2090623D01*
X3271723Y2101443D01*
X3259632Y2110892D01*
X3246577Y2118817D01*
X3234232Y2124354D01*
X3231032Y2126589D01*
X3228949Y2129840D01*
X3228238Y2133600D01*
X3228949Y2137410D01*
X3231032Y2140661D01*
X3234232Y2142896D01*
X3246577Y2148433D01*
X3259632Y2156358D01*
X3271723Y2165807D01*
X3282492Y2176627D01*
X3291941Y2188667D01*
X3299866Y2201773D01*
X3306165Y2215692D01*
X3310686Y2230323D01*
X3313429Y2245360D01*
X3314395Y2260600D01*
X3313429Y2275890D01*
X3310686Y2290927D01*
X3306165Y2305558D01*
X3299866Y2319477D01*
X3291941Y2332583D01*
X3282492Y2344623D01*
X3271723Y2355443D01*
X3259632Y2364892D01*
X3246577Y2372817D01*
X3234232Y2378354D01*
X3231032Y2380589D01*
X3228949Y2383840D01*
X3228238Y2387600D01*
X3228949Y2391410D01*
X3231032Y2394661D01*
X3234232Y2396896D01*
X3246577Y2402433D01*
X3259632Y2410358D01*
X3271723Y2419807D01*
X3282492Y2430627D01*
X3291941Y2442667D01*
X3299866Y2455773D01*
X3306165Y2469692D01*
X3310686Y2484323D01*
X3313429Y2499360D01*
X3314395Y2514600D01*
X3313429Y2529890D01*
X3310686Y2544927D01*
X3306165Y2559558D01*
X3299866Y2573477D01*
X3291941Y2586583D01*
X3282492Y2598623D01*
X3271723Y2609443D01*
X3259632Y2618892D01*
X3246577Y2626817D01*
X3234232Y2632354D01*
X3231032Y2634589D01*
X3228949Y2637840D01*
X3228238Y2641600D01*
X3228949Y2645410D01*
X3231032Y2648661D01*
X3234232Y2650896D01*
X3246577Y2656433D01*
X3259632Y2664358D01*
X3271723Y2673807D01*
X3277971Y2680106D01*
X3281273Y2682290D01*
X3285185Y2683052D01*
X4228896Y2683052D01*
X4235196Y2683306D01*
X4241241Y2683967D01*
X4247235Y2685034D01*
X4253179Y2686558D01*
X4258970Y2688488D01*
X4264609Y2690774D01*
X4270044Y2693517D01*
X4275277Y2696667D01*
X4280306Y2700121D01*
X4285081Y2703931D01*
X4289653Y2708249D01*
X5000650Y3419195D01*
X5004917Y3423818D01*
X5008727Y3428542D01*
X5012232Y3433572D01*
X5015331Y3438804D01*
X5018074Y3444290D01*
X5020411Y3449929D01*
X5022342Y3455720D01*
X5023866Y3461613D01*
X5024932Y3467608D01*
X5025593Y3473704D01*
X5025796Y3480003D01*
X5025796Y4760976D01*
X5026558Y4764836D01*
X5028793Y4768138D01*
X5169052Y4908448D01*
X5171490Y4910226D01*
X5174386Y4911242D01*
X5177434Y4911344D01*
X5186070Y4910378D01*
X5202529Y4910378D01*
X5218938Y4912258D01*
X5234990Y4915966D01*
X5250535Y4921504D01*
X5265318Y4928819D01*
X5279237Y4937709D01*
X5291988Y4948174D01*
X5303469Y4960010D01*
X5307431Y4965141D01*
X5309666Y4967274D01*
X5312460Y4968646D01*
X5315508Y4969103D01*
X5445252Y4969103D01*
X5448401Y4968595D01*
X5451297Y4967122D01*
X5453532Y4964836D01*
X5462828Y4951679D01*
X5474106Y4939080D01*
X5486654Y4927854D01*
X5500420Y4918100D01*
X5515203Y4909921D01*
X5530799Y4903470D01*
X5534761Y4902301D01*
X5538470Y4900371D01*
X5541060Y4897069D01*
X5542127Y4893005D01*
X5541416Y4888890D01*
X5539130Y4885385D01*
X5108549Y4454804D01*
X5104282Y4450181D01*
X5100472Y4445457D01*
X5096967Y4440428D01*
X5093868Y4435195D01*
X5091125Y4429709D01*
X5088788Y4424070D01*
X5086858Y4418279D01*
X5085334Y4412386D01*
X5084267Y4406392D01*
X5083606Y4400296D01*
X5083403Y4393996D01*
X5083403Y3746703D01*
X5083606Y3740404D01*
X5084267Y3734308D01*
X5085334Y3728313D01*
X5086858Y3722420D01*
X5088788Y3716629D01*
X5091125Y3710990D01*
X5093868Y3705504D01*
X5096967Y3700272D01*
X5100472Y3695242D01*
X5104282Y3690518D01*
X5108549Y3685895D01*
X5311495Y3482949D01*
X5316118Y3478682D01*
X5320842Y3474872D01*
X5325872Y3471367D01*
X5331104Y3468268D01*
X5336590Y3465525D01*
X5342229Y3463188D01*
X5348020Y3461258D01*
X5353913Y3459734D01*
X5359908Y3458667D01*
X5366004Y3458006D01*
X5372303Y3457803D01*
X5619140Y3457803D01*
X5622188Y3457346D01*
X5624931Y3455974D01*
X5627166Y3453892D01*
X5632856Y3446627D01*
X5643676Y3435807D01*
X5655716Y3426358D01*
X5668822Y3418433D01*
X5681167Y3412896D01*
X5684316Y3410661D01*
X5686399Y3407410D01*
X5687161Y3403600D01*
X5686399Y3399840D01*
X5684316Y3396589D01*
X5681167Y3394354D01*
X5668822Y3388817D01*
X5655716Y3380892D01*
X5643676Y3371443D01*
X5632856Y3360623D01*
X5623407Y3348583D01*
X5615533Y3335477D01*
X5609234Y3321558D01*
X5604662Y3306927D01*
X5601919Y3291890D01*
X5601004Y3276600D01*
X5601919Y3261360D01*
X5604662Y3246323D01*
X5609234Y3231692D01*
X5615533Y3217773D01*
X5623407Y3204667D01*
X5632856Y3192627D01*
X5643676Y3181807D01*
X5655716Y3172358D01*
X5668822Y3164433D01*
X5681167Y3158896D01*
X5684316Y3156661D01*
X5686399Y3153410D01*
X5687161Y3149600D01*
X5686399Y3145840D01*
X5684316Y3142589D01*
X5681167Y3140354D01*
X5668822Y3134817D01*
X5655716Y3126892D01*
X5643676Y3117443D01*
X5632856Y3106623D01*
X5623407Y3094583D01*
X5615533Y3081477D01*
X5609234Y3067558D01*
X5604662Y3052927D01*
X5601919Y3037890D01*
X5601004Y3022600D01*
X5601919Y3007360D01*
X5604662Y2992323D01*
X5609234Y2977692D01*
X5615533Y2963773D01*
X5623407Y2950667D01*
X5632856Y2938627D01*
X5643676Y2927807D01*
X5655716Y2918358D01*
X5668822Y2910433D01*
X5681167Y2904896D01*
X5684316Y2902661D01*
X5686399Y2899410D01*
X5687161Y2895600D01*
X5686399Y2891840D01*
X5684316Y2888589D01*
X5681167Y2886354D01*
X5668822Y2880817D01*
X5655716Y2872892D01*
X5643676Y2863443D01*
X5632856Y2852623D01*
X5623407Y2840583D01*
X5615533Y2827477D01*
X5609234Y2813558D01*
X5604662Y2798927D01*
X5601919Y2783890D01*
X5601004Y2768600D01*
X5601919Y2753360D01*
X5604662Y2738323D01*
X5609234Y2723692D01*
X5615533Y2709773D01*
X5623407Y2696667D01*
X5632856Y2684627D01*
X5643676Y2673807D01*
X5655716Y2664358D01*
X5668822Y2656433D01*
X5681167Y2650896D01*
X5684316Y2648661D01*
X5686399Y2645410D01*
X5687161Y2641600D01*
X5686399Y2637840D01*
X5684316Y2634589D01*
X5681167Y2632354D01*
X5668822Y2626817D01*
X5655716Y2618892D01*
X5643676Y2609443D01*
X5632856Y2598623D01*
X5623407Y2586583D01*
X5615533Y2573477D01*
X5609234Y2559558D01*
X5604662Y2544927D01*
X5601919Y2529890D01*
X5601004Y2514600D01*
X5601919Y2499360D01*
X5604662Y2484323D01*
X5609234Y2469692D01*
X5615533Y2455773D01*
X5623407Y2442667D01*
X5632856Y2430627D01*
X5643676Y2419807D01*
X5655716Y2410358D01*
X5668822Y2402433D01*
X5681167Y2396896D01*
X5684316Y2394661D01*
X5686399Y2391410D01*
X5687161Y2387600D01*
X5686399Y2383840D01*
X5684316Y2380589D01*
X5681167Y2378354D01*
X5668822Y2372817D01*
X5655716Y2364892D01*
X5643676Y2355443D01*
X5632856Y2344623D01*
X5623407Y2332583D01*
X5615533Y2319477D01*
X5609234Y2305558D01*
X5604662Y2290927D01*
X5601919Y2275890D01*
X5601004Y2260600D01*
X5601919Y2245360D01*
X5604662Y2230323D01*
X5609234Y2215692D01*
X5615533Y2201773D01*
X5623407Y2188667D01*
X5632856Y2176627D01*
X5643676Y2165807D01*
X5655716Y2156358D01*
X5668822Y2148433D01*
X5681167Y2142896D01*
X5684316Y2140661D01*
X5686399Y2137410D01*
X5687161Y2133600D01*
X5686399Y2129840D01*
X5684316Y2126589D01*
X5681167Y2124354D01*
X5668822Y2118817D01*
X5655716Y2110892D01*
X5643676Y2101443D01*
X5632856Y2090623D01*
X5623407Y2078583D01*
X5615533Y2065477D01*
X5609234Y2051557D01*
X5604662Y2036927D01*
X5601919Y2021890D01*
X5601004Y2006600D01*
X5601919Y1991360D01*
X5604662Y1976323D01*
X5609234Y1961692D01*
X5615533Y1947773D01*
X5623407Y1934667D01*
X5632856Y1922627D01*
X5643676Y1911807D01*
X5655716Y1902358D01*
X5668822Y1894433D01*
X5681167Y1888896D01*
X5684316Y1886661D01*
X5686399Y1883410D01*
X5687161Y1879600D01*
X5686399Y1875840D01*
X5684316Y1872589D01*
X5681167Y1870354D01*
X5668822Y1864817D01*
X5655716Y1856892D01*
X5643676Y1847443D01*
X5632856Y1836623D01*
X5623407Y1824583D01*
X5615533Y1811477D01*
X5609234Y1797557D01*
X5604662Y1782927D01*
X5601919Y1767890D01*
X5601004Y1752600D01*
X5601919Y1737360D01*
X5604662Y1722323D01*
X5609234Y1707692D01*
X5615533Y1693773D01*
X5623407Y1680667D01*
X5632856Y1668627D01*
X5643676Y1657807D01*
X5655716Y1648358D01*
X5668822Y1640433D01*
X5681167Y1634896D01*
X5684316Y1632661D01*
X5686399Y1629410D01*
X5687161Y1625600D01*
X5686399Y1621840D01*
X5684316Y1618589D01*
X5681167Y1616354D01*
X5668822Y1610817D01*
X5655716Y1602892D01*
X5643676Y1593443D01*
X5632856Y1582623D01*
X5623407Y1570583D01*
X5615533Y1557477D01*
X5609234Y1543558D01*
X5604662Y1528927D01*
X5601919Y1513890D01*
X5601004Y1498600D01*
X5601919Y1483360D01*
X5604662Y1468323D01*
X5609234Y1453692D01*
X5615533Y1439773D01*
X5623407Y1426667D01*
X5632856Y1414627D01*
X5643676Y1403807D01*
X5655716Y1394358D01*
X5668822Y1386433D01*
X5681167Y1380896D01*
X5684316Y1378661D01*
X5686399Y1375410D01*
X5687161Y1371600D01*
X5686399Y1367840D01*
X5684316Y1364589D01*
X5681167Y1362354D01*
X5668822Y1356817D01*
X5655716Y1348892D01*
X5643676Y1339443D01*
X5632856Y1328623D01*
X5623407Y1316583D01*
X5615533Y1303477D01*
X5609234Y1289558D01*
X5604662Y1274927D01*
X5601919Y1259890D01*
X5601004Y1244600D01*
X5601919Y1229360D01*
X5604662Y1214323D01*
X5609234Y1199692D01*
X5615533Y1185773D01*
X5623407Y1172667D01*
X5632856Y1160627D01*
X5643676Y1149807D01*
X5655716Y1140358D01*
X5668822Y1132433D01*
X5681167Y1126896D01*
X5684316Y1124661D01*
X5686399Y1121410D01*
X5687161Y1117600D01*
X5686399Y1113840D01*
X5684316Y1110589D01*
X5681167Y1108354D01*
X5668822Y1102817D01*
X5655716Y1094892D01*
X5643676Y1085443D01*
X5632856Y1074623D01*
X5623407Y1062583D01*
X5615533Y1049477D01*
X5609234Y1035558D01*
X5604662Y1020927D01*
X5601919Y1005890D01*
X5601004Y990600D01*
X5601919Y975360D01*
X5604662Y960323D01*
X5609234Y945692D01*
X5615533Y931773D01*
X5623407Y918667D01*
X5632856Y906627D01*
X5643676Y895807D01*
X5655716Y886358D01*
X5668822Y878433D01*
X5681167Y872896D01*
X5684316Y870661D01*
X5686399Y867410D01*
X5687161Y863600D01*
X5686399Y859840D01*
X5684316Y856589D01*
X5681167Y854354D01*
X5668822Y848817D01*
X5655716Y840892D01*
X5643676Y831443D01*
X5632856Y820623D01*
X5623407Y808583D01*
X5615533Y795477D01*
X5609234Y781558D01*
X5604662Y766927D01*
X5601919Y751890D01*
X5601004Y736600D01*
X5601919Y721360D01*
X5604662Y706323D01*
X5609234Y691692D01*
X5615533Y677773D01*
X5623407Y664667D01*
X5632856Y652627D01*
X5643676Y641807D01*
X5655716Y632358D01*
X5668822Y624433D01*
X5681167Y618896D01*
X5684316Y616661D01*
X5686399Y613410D01*
X5686755Y611733D01*
X5688990Y613359D01*
X5692648Y614324D01*
X5712409Y610870D01*
X5727700Y609955D01*
X5742940Y610870D01*
X5762701Y614324D01*
X5766358Y613359D01*
X5768644Y611733D01*
X5768949Y613410D01*
X5771032Y616661D01*
X5774232Y618896D01*
X5786577Y624433D01*
X5799632Y632358D01*
X5811723Y641807D01*
X5818022Y648106D01*
X5821324Y650341D01*
X5825185Y651103D01*
X6089091Y651103D01*
X6093460Y650087D01*
X6096965Y647344D01*
X6103874Y638911D01*
X6115710Y627430D01*
X6120841Y623468D01*
X6122974Y621233D01*
X6124346Y618439D01*
X6124803Y615391D01*
X6124803Y203D01*
X6125006Y-6096D01*
X6125667Y-12192D01*
X6126734Y-18186D01*
X6128258Y-24079D01*
X6130188Y-29870D01*
X6132525Y-35509D01*
X6135268Y-40995D01*
X6138367Y-46228D01*
X6141872Y-51257D01*
X6145682Y-55981D01*
X6149949Y-60604D01*
X6276695Y-187350D01*
X6281318Y-191617D01*
X6286042Y-195427D01*
X6291072Y-198932D01*
X6296304Y-202031D01*
X6301790Y-204774D01*
X6307429Y-207111D01*
X6313220Y-209042D01*
X6319113Y-210566D01*
X6325108Y-211632D01*
X6331204Y-212293D01*
X6337503Y-212496D01*
X6375044Y-212496D01*
X6379362Y-213461D01*
X6382816Y-216154D01*
X6388303Y-222656D01*
X6400088Y-233781D01*
X6413093Y-243484D01*
X6416141Y-245211D01*
X6419240Y-248005D01*
X6420967Y-251866D01*
X6420967Y-256133D01*
X6419240Y-259994D01*
X6416141Y-262788D01*
X6413093Y-264515D01*
X6400088Y-274218D01*
X6388303Y-285343D01*
X6377889Y-297738D01*
X6368999Y-311302D01*
X6361684Y-325780D01*
X6356146Y-341020D01*
X6352438Y-356819D01*
X6350558Y-372872D01*
X6350558Y-389128D01*
X6352438Y-405180D01*
X6356146Y-420979D01*
X6361684Y-436219D01*
X6368999Y-450697D01*
X6377889Y-464261D01*
X6388303Y-476656D01*
X6400088Y-487781D01*
X6413093Y-497484D01*
X6416141Y-499211D01*
X6419240Y-502005D01*
X6420967Y-505866D01*
X6420967Y-510133D01*
X6419240Y-513994D01*
X6416141Y-516788D01*
X6413093Y-518515D01*
X6400088Y-528218D01*
X6388303Y-539343D01*
X6377889Y-551738D01*
X6368999Y-565302D01*
X6361684Y-579780D01*
X6360109Y-584200D01*
X6438900Y-584200D01*
X6438900Y-524713D01*
X6439611Y-521004D01*
X6441592Y-517804D01*
X6444589Y-515569D01*
X6448247Y-514553D01*
X6451955Y-514959D01*
X6457543Y-516635D01*
X6473494Y-519430D01*
X6489700Y-520395D01*
X6505905Y-519430D01*
X6521856Y-516635D01*
X6527444Y-514959D01*
X6531152Y-514553D01*
X6534810Y-515569D01*
X6537807Y-517804D01*
X6539788Y-521004D01*
X6540500Y-524713D01*
X6540500Y-584200D01*
X6619290Y-584200D01*
X6617716Y-579780D01*
X6610400Y-565302D01*
X6601510Y-551738D01*
X6591096Y-539343D01*
X6579311Y-528218D01*
X6566306Y-518515D01*
X6563258Y-516788D01*
X6560159Y-513994D01*
X6558432Y-510133D01*
X6558432Y-505866D01*
X6560159Y-502005D01*
X6563258Y-499211D01*
X6566306Y-497484D01*
X6579311Y-487781D01*
X6591096Y-476656D01*
X6601510Y-464261D01*
X6610400Y-450697D01*
X6617716Y-436219D01*
X6623253Y-420979D01*
X6626961Y-405180D01*
X6628841Y-389128D01*
X6628841Y-372872D01*
X6626961Y-356819D01*
X6623253Y-341020D01*
X6617716Y-325780D01*
X6610400Y-311302D01*
X6601510Y-297738D01*
X6591096Y-285343D01*
X6579311Y-274218D01*
X6566306Y-264515D01*
X6563258Y-262788D01*
X6560159Y-259994D01*
X6558432Y-256133D01*
X6558432Y-251866D01*
X6560159Y-248005D01*
X6563258Y-245211D01*
X6566306Y-243484D01*
X6579311Y-233781D01*
X6591096Y-222656D01*
X6601510Y-210261D01*
X6610400Y-196697D01*
X6617716Y-182219D01*
X6623253Y-166979D01*
X6626961Y-151180D01*
X6628841Y-135128D01*
X6628841Y-118872D01*
X6626961Y-102819D01*
X6623253Y-87020D01*
X6617716Y-71780D01*
X6610400Y-57302D01*
X6601510Y-43738D01*
X6591096Y-31343D01*
X6579311Y-20218D01*
X6566306Y-10515D01*
X6563258Y-8788D01*
X6560159Y-5994D01*
X6558432Y-2133D01*
X6558432Y2133D01*
X6560159Y5994D01*
X6563258Y8788D01*
X6566306Y10515D01*
X6579717Y20624D01*
X6583019Y22707D01*
X6586829Y23368D01*
X6590639Y22555D01*
X6593840Y20421D01*
X6767220Y-152958D01*
X6769404Y-156260D01*
X6770217Y-160121D01*
X6770217Y-601878D01*
X6769404Y-605739D01*
X6767220Y-609041D01*
X6578041Y-798220D01*
X6574739Y-800404D01*
X6570878Y-801217D01*
X6268821Y-801217D01*
X6264960Y-800404D01*
X6261658Y-798220D01*
X5831179Y-367741D01*
X5828995Y-364439D01*
X5828233Y-360578D01*
X5828233Y148386D01*
X5828741Y151688D01*
X5830366Y154635D01*
X5831941Y156667D01*
X5839866Y169773D01*
X5846165Y183692D01*
X5850686Y198323D01*
X5853430Y213360D01*
X5854395Y228600D01*
X5853430Y243890D01*
X5850686Y258927D01*
X5846165Y273558D01*
X5839866Y287477D01*
X5831941Y300583D01*
X5822492Y312623D01*
X5811723Y323443D01*
X5799632Y332892D01*
X5786577Y340817D01*
X5774232Y346354D01*
X5771032Y348589D01*
X5768949Y351840D01*
X5768644Y353517D01*
X5766358Y351891D01*
X5762701Y350926D01*
X5742940Y354380D01*
X5727700Y355295D01*
X5712409Y354380D01*
X5692648Y350926D01*
X5688990Y351891D01*
X5686755Y353517D01*
X5686399Y351840D01*
X5684316Y348589D01*
X5681167Y346354D01*
X5668822Y340817D01*
X5655716Y332892D01*
X5643676Y323443D01*
X5632856Y312623D01*
X5623407Y300583D01*
X5615533Y287477D01*
X5609234Y273558D01*
X5604662Y258927D01*
X5603087Y250190D01*
X5602071Y247294D01*
X5600242Y244805D01*
X5192217Y-163220D01*
X5188915Y-165404D01*
X5185054Y-166217D01*
X2767431Y-166217D01*
X2753969Y-167081D01*
X2741066Y-169621D01*
X2728620Y-173888D01*
X2716834Y-179679D01*
X2705912Y-186994D01*
X2695752Y-195884D01*
X2133041Y-758596D01*
X2129739Y-760780D01*
X2125878Y-761593D01*
X1011021Y-761593D01*
X1007160Y-760780D01*
X1003858Y-758596D01*
X420979Y-175717D01*
X418795Y-172415D01*
X418033Y-168554D01*
X418033Y450342D01*
X418795Y454253D01*
X421081Y457555D01*
X424434Y459790D01*
X428396Y460501D01*
X432308Y459587D01*
X435559Y457250D01*
X441655Y450799D01*
X452831Y441553D01*
X465074Y433781D01*
X478180Y427634D01*
X481838Y426415D01*
X481838Y496163D01*
X428193Y496163D01*
X424281Y496925D01*
X420979Y499109D01*
X418795Y502412D01*
X418033Y506323D01*
X418033Y563676D01*
X418795Y567588D01*
X420979Y570890D01*
X424281Y573074D01*
X428193Y573836D01*
X481838Y573836D01*
X481838Y612800D01*
X482803Y617118D01*
X485546Y620623D01*
X489508Y622655D01*
X493928Y622757D01*
X506222Y620420D01*
X520700Y619506D01*
X535178Y620420D01*
X547471Y622757D01*
X551942Y622655D01*
X555853Y620623D01*
X558596Y617118D01*
X559562Y612800D01*
X559562Y573836D01*
X629259Y573836D01*
X625195Y584149D01*
X618185Y596900D01*
X609701Y608634D01*
X599744Y619201D01*
X590092Y627176D01*
X587400Y630682D01*
X586435Y635000D01*
X587400Y639318D01*
X590092Y642823D01*
X599744Y650798D01*
X609701Y661365D01*
X618185Y673100D01*
X625195Y685850D01*
X630529Y699312D01*
X632206Y704392D01*
X633831Y706526D01*
X699363Y772769D01*
X702665Y775004D01*
X706577Y775766D01*
X1338478Y775766D01*
X1342339Y775004D01*
X1345641Y772820D01*
X1392529Y725932D01*
X1394764Y722579D01*
X1395476Y718616D01*
X1394663Y714705D01*
X1392326Y711403D01*
X1388922Y709269D01*
X1384960Y708609D01*
X1381048Y709574D01*
X1377238Y711301D01*
X1368755Y713587D01*
X1359560Y714400D01*
X1321358Y714400D01*
X1321358Y605231D01*
X1375003Y605231D01*
X1379270Y604316D01*
X1382776Y601624D01*
X1384808Y597763D01*
X1385011Y593394D01*
X1384401Y589635D01*
X1383487Y573633D01*
X1383487Y494182D01*
X1384401Y478180D01*
X1385011Y474421D01*
X1384808Y470052D01*
X1382776Y466140D01*
X1379270Y463499D01*
X1375003Y462534D01*
X1321358Y462534D01*
X1321358Y353364D01*
X1359560Y353364D01*
X1368755Y354177D01*
X1377238Y356463D01*
X1385214Y360172D01*
X1392428Y365252D01*
X1398625Y371449D01*
X1403705Y378663D01*
X1407414Y386638D01*
X1408176Y389483D01*
X1410004Y393192D01*
X1413205Y395833D01*
X1417116Y397002D01*
X1421180Y396494D01*
X1424787Y394462D01*
X1436370Y384048D01*
X1449222Y374954D01*
X1463040Y367334D01*
X1477568Y361289D01*
X1492707Y356920D01*
X1508252Y354279D01*
X1524000Y353415D01*
X1539697Y354279D01*
X1555242Y356920D01*
X1570380Y361289D01*
X1584960Y367334D01*
X1598726Y374954D01*
X1611579Y384048D01*
X1623314Y394563D01*
X1633829Y406298D01*
X1642364Y418287D01*
X1645107Y420979D01*
X1648714Y422401D01*
X1652574Y422401D01*
X1656130Y420979D01*
X1658924Y418287D01*
X1668170Y405282D01*
X1675384Y397205D01*
X1677263Y394106D01*
X1677974Y390499D01*
X1679600Y-114452D01*
X1678889Y-118211D01*
X1676806Y-121462D01*
X1673707Y-123698D01*
X1670304Y-125272D01*
X1663090Y-130352D01*
X1656892Y-136550D01*
X1651812Y-143764D01*
X1648104Y-151739D01*
X1645818Y-160223D01*
X1645056Y-169468D01*
X1645056Y-338531D01*
X1645818Y-347776D01*
X1648104Y-356260D01*
X1651812Y-364236D01*
X1656892Y-371449D01*
X1663090Y-377647D01*
X1670304Y-382727D01*
X1678279Y-386435D01*
X1686763Y-388721D01*
X1696008Y-389483D01*
X1865071Y-389483D01*
X1874316Y-388721D01*
X1882800Y-386435D01*
X1890775Y-382727D01*
X1897989Y-377647D01*
X1904187Y-371449D01*
X1909267Y-364236D01*
X1912975Y-356260D01*
X1915261Y-347776D01*
X1916023Y-338531D01*
X1916023Y-169468D01*
X1915261Y-160223D01*
X1912975Y-151739D01*
X1909267Y-143764D01*
X1904187Y-136550D01*
X1897989Y-130352D01*
X1890775Y-125272D01*
X1886457Y-123291D01*
X1883359Y-121056D01*
X1881327Y-117856D01*
X1880616Y-114096D01*
X1878939Y391464D01*
X1879650Y395122D01*
X1881530Y398272D01*
X1887829Y405282D01*
X1896922Y418134D01*
X1902104Y427482D01*
X1904390Y430276D01*
X1907438Y432104D01*
X1910994Y432765D01*
X2468372Y434238D01*
X2472740Y433273D01*
X2484780Y427634D01*
X2498598Y423164D01*
X2512822Y420420D01*
X2527300Y419506D01*
X2541778Y420420D01*
X2556002Y423164D01*
X2569819Y427634D01*
X2582926Y433781D01*
X2595168Y441553D01*
X2606344Y450799D01*
X2616301Y461365D01*
X2624785Y473100D01*
X2631795Y485851D01*
X2637129Y499313D01*
X2640736Y513384D01*
X2642565Y527761D01*
X2642565Y542239D01*
X2640736Y556615D01*
X2637129Y570687D01*
X2631795Y584149D01*
X2624785Y596900D01*
X2616301Y608634D01*
X2606344Y619201D01*
X2596692Y627176D01*
X2594000Y630682D01*
X2593035Y635000D01*
X2594000Y639318D01*
X2596692Y642823D01*
X2606344Y650798D01*
X2616301Y661365D01*
X2624785Y673100D01*
X2631795Y685850D01*
X2635859Y696163D01*
X2566162Y696163D01*
X2566162Y657199D01*
X2565196Y652881D01*
X2562453Y649376D01*
X2558542Y647344D01*
X2554071Y647242D01*
X2541778Y649579D01*
X2527300Y650494D01*
X2512822Y649579D01*
X2500528Y647242D01*
X2496058Y647344D01*
X2492146Y649376D01*
X2489403Y652881D01*
X2488438Y657199D01*
X2488438Y696163D01*
X2418740Y696163D01*
X2422804Y685850D01*
X2429814Y673100D01*
X2438298Y661365D01*
X2446832Y652322D01*
X2448915Y649020D01*
X2449576Y645160D01*
X2448763Y641350D01*
X2446578Y638098D01*
X2443276Y635965D01*
X2439466Y635203D01*
X1910638Y633780D01*
X1907082Y634390D01*
X1903984Y636219D01*
X1901698Y639013D01*
X1896922Y647649D01*
X1887829Y660501D01*
X1877314Y672236D01*
X1865579Y682752D01*
X1852726Y691845D01*
X1838960Y699465D01*
X1824380Y705510D01*
X1809242Y709879D01*
X1793697Y712520D01*
X1778000Y713384D01*
X1762252Y712520D01*
X1746707Y709879D01*
X1731568Y705510D01*
X1717039Y699465D01*
X1703222Y691845D01*
X1690370Y682752D01*
X1678635Y672236D01*
X1668170Y660501D01*
X1659636Y648462D01*
X1656842Y645820D01*
X1653286Y644398D01*
X1649425Y644398D01*
X1645818Y645820D01*
X1643075Y648462D01*
X1633829Y661466D01*
X1627073Y669036D01*
X1625193Y672185D01*
X1624533Y675792D01*
X1624533Y736244D01*
X1623618Y749706D01*
X1621078Y762609D01*
X1616862Y775055D01*
X1611020Y786841D01*
X1603705Y797763D01*
X1594815Y807923D01*
X1455623Y947115D01*
X1445463Y956005D01*
X1434541Y963320D01*
X1422755Y969111D01*
X1410309Y973378D01*
X1397406Y975918D01*
X1383944Y976782D01*
X660755Y976782D01*
X647293Y975918D01*
X633374Y973124D01*
X628904Y973226D01*
X624941Y975207D01*
X622198Y978712D01*
X621233Y983081D01*
X621233Y1009853D01*
X621893Y1013510D01*
X623874Y1016711D01*
X632561Y1026160D01*
X642213Y1039469D01*
X650341Y1053846D01*
X656793Y1069035D01*
X661416Y1084884D01*
X664210Y1101140D01*
X665175Y1117600D01*
X664210Y1134059D01*
X661416Y1150315D01*
X656793Y1166164D01*
X650341Y1181354D01*
X642213Y1195730D01*
X632561Y1209040D01*
X623874Y1218488D01*
X621893Y1221689D01*
X621233Y1225346D01*
X621233Y3116478D01*
X621995Y3120339D01*
X624179Y3123641D01*
X1181658Y3681120D01*
X1184960Y3683304D01*
X1188821Y3684066D01*
X1517599Y3684066D01*
X1521155Y3683457D01*
X1524254Y3681577D01*
X1537411Y3670198D01*
X1550974Y3660901D01*
X1565605Y3653180D01*
X1580946Y3647186D01*
X1596898Y3643020D01*
X1613255Y3640683D01*
X1629714Y3640175D01*
X1646174Y3641598D01*
X1662328Y3644900D01*
X1678025Y3649979D01*
X1693011Y3656837D01*
X1707134Y3665321D01*
X1720189Y3675430D01*
X1732025Y3686911D01*
X1742490Y3699662D01*
X1751380Y3713581D01*
X1758696Y3728364D01*
X1764233Y3743909D01*
X1767941Y3759962D01*
X1769821Y3776370D01*
X1769821Y3792829D01*
X1767941Y3809237D01*
X1764233Y3825290D01*
X1758696Y3840835D01*
X1751380Y3855618D01*
X1742490Y3869537D01*
X1732025Y3882288D01*
X1720189Y3893769D01*
X1707134Y3903878D01*
X1693011Y3912362D01*
X1678025Y3919220D01*
X1662328Y3924300D01*
X1646174Y3927601D01*
X1629714Y3929024D01*
X1613255Y3928516D01*
X1596898Y3926179D01*
X1580946Y3922014D01*
X1565605Y3916019D01*
X1550974Y3908298D01*
X1537411Y3899001D01*
X1524254Y3887622D01*
X1521155Y3885742D01*
X1517599Y3885082D01*
X1176121Y3885082D01*
X1172260Y3885895D01*
X1168958Y3888079D01*
X243179Y4813858D01*
X240995Y4817160D01*
X240233Y4821021D01*
X240233Y5542178D01*
X240995Y5546039D01*
X243179Y5549341D01*
X617220Y5923381D01*
X620522Y5925566D01*
X624433Y5926378D01*
X630529Y5926378D01*
X646938Y5928258D01*
X662990Y5931966D01*
X678535Y5937504D01*
X693318Y5944819D01*
X707237Y5953709D01*
X719988Y5964174D01*
X722782Y5967018D01*
X726084Y5969304D01*
X730046Y5970066D01*
X2038553Y5970066D01*
X2042515Y5969304D01*
X2045817Y5967018D01*
X2048611Y5964174D01*
X2061362Y5953709D01*
X2075281Y5944819D01*
X2090064Y5937504D01*
X2105609Y5931966D01*
X2121662Y5928258D01*
X2138070Y5926378D01*
X2154529Y5926378D01*
X2170938Y5928258D01*
X2186990Y5931966D01*
X2202535Y5937504D01*
X2217318Y5944819D01*
X2231237Y5953709D01*
X2243988Y5964174D01*
X2246782Y5967018D01*
X2250084Y5969304D01*
X2254046Y5970066D01*
X3562553Y5970066D01*
X3566515Y5969304D01*
X3569817Y5967018D01*
X3572611Y5964174D01*
X3585362Y5953709D01*
X3599281Y5944819D01*
X3614064Y5937504D01*
X3629609Y5931966D01*
X3645662Y5928258D01*
X3662070Y5926378D01*
X3678529Y5926378D01*
X3694937Y5928258D01*
X3710990Y5931966D01*
X3726535Y5937504D01*
X3741318Y5944819D01*
X3755237Y5953709D01*
X3767988Y5964174D01*
X3770782Y5967018D01*
X3774084Y5969304D01*
X3778046Y5970066D01*
X5086553Y5970066D01*
X5090515Y5969304D01*
X5093817Y5967018D01*
X5096611Y5964174D01*
X5109362Y5953709D01*
X5123281Y5944819D01*
X5138064Y5937504D01*
X5153609Y5931966D01*
X5169662Y5928258D01*
X5186070Y5926378D01*
X5202529Y5926378D01*
X5218938Y5928258D01*
X5234990Y5931966D01*
X5250535Y5937504D01*
X5265318Y5944819D01*
X5279237Y5953709D01*
X5291988Y5964174D01*
X5303469Y5976010D01*
X5313578Y5989066D01*
X5322062Y6003188D01*
X5328920Y6018174D01*
X5334000Y6033871D01*
X5337302Y6050026D01*
X5338724Y6066485D01*
X5338216Y6082944D01*
X5335879Y6099302D01*
X5331714Y6115253D01*
X5325719Y6130594D01*
X5317998Y6145225D01*
X5308701Y6158839D01*
X5297881Y6171285D01*
X5285740Y6182461D01*
X5272430Y6192113D01*
X5258054Y6200241D01*
X5242864Y6206693D01*
X5227015Y6211316D01*
X5210759Y6214110D01*
X5194300Y6215075D01*
X5177840Y6214110D01*
X5161584Y6211316D01*
X5145735Y6206693D01*
X5130546Y6200241D01*
X5116169Y6192113D01*
X5102860Y6182461D01*
X5093411Y6173774D01*
X5090210Y6171793D01*
X5086553Y6171082D01*
X3778046Y6171082D01*
X3774389Y6171793D01*
X3771188Y6173774D01*
X3761740Y6182461D01*
X3748430Y6192113D01*
X3734054Y6200241D01*
X3718864Y6206693D01*
X3703015Y6211316D01*
X3686759Y6214110D01*
X3670300Y6215075D01*
X3653840Y6214110D01*
X3637584Y6211316D01*
X3621735Y6206693D01*
X3606546Y6200241D01*
X3592169Y6192113D01*
X3578860Y6182461D01*
X3569411Y6173774D01*
X3566210Y6171793D01*
X3562553Y6171082D01*
X2254046Y6171082D01*
X2250389Y6171793D01*
X2247188Y6173774D01*
X2237740Y6182461D01*
X2224430Y6192113D01*
X2210054Y6200241D01*
X2194864Y6206693D01*
X2179015Y6211316D01*
X2162759Y6214110D01*
X2146300Y6215075D01*
X2129840Y6214110D01*
X2113584Y6211316D01*
X2097735Y6206693D01*
X2082546Y6200241D01*
X2068169Y6192113D01*
X2054860Y6182461D01*
X2045411Y6173774D01*
X2042210Y6171793D01*
X2038553Y6171082D01*
X730046Y6171082D01*
X726389Y6171793D01*
X723188Y6173774D01*
X713740Y6182461D01*
X700430Y6192113D01*
X686054Y6200241D01*
X670864Y6206693D01*
X655015Y6211316D01*
X638759Y6214110D01*
X622300Y6215075D01*
X605840Y6214110D01*
X589584Y6211316D01*
X573735Y6206693D01*
X558546Y6200241D01*
X544169Y6192113D01*
X530860Y6182461D01*
X518718Y6171285D01*
X507898Y6158839D01*
X498601Y6145225D01*
X490880Y6130594D01*
X484885Y6115253D01*
X480720Y6099302D01*
X478383Y6082944D01*
X478078Y6072428D01*
X477215Y6068669D01*
X475081Y6065520D01*
X68884Y5659323D01*
X59994Y5649163D01*
X57200Y5645048D01*
X54152Y5642051D01*
X50088Y5640628D01*
X45821Y5640933D01*
X42062Y5643067D01*
X39522Y5646470D01*
X38608Y5650687D01*
X38608Y6542531D01*
X39370Y6546443D01*
X41605Y6549694D01*
X44856Y6551930D01*
X48768Y6552692D01*
X8701532Y6552692D01*
X8705443Y6551930D01*
X8708694Y6549694D01*
X8710930Y6546443D01*
X8711692Y6542531D01*
X8711692Y-1005332D01*
X8710930Y-1009243D01*
X8708694Y-1012494D01*
X8705443Y-1014730D01*
X8701532Y-1015492D01*
G37*

%LPC*%
G36*
X6540500Y-764641D02*
G01*
X6552234Y-759561D01*
X6566306Y-751484D01*
X6579311Y-741781D01*
X6591096Y-730656D01*
X6601510Y-718261D01*
X6610400Y-704697D01*
X6617716Y-690219D01*
X6619290Y-685800D01*
X6540500Y-685800D01*
G37*
G36*
X6438900Y-764641D02*
G01*
X6438900Y-685800D01*
X6360109Y-685800D01*
X6361684Y-690219D01*
X6368999Y-704697D01*
X6377889Y-718261D01*
X6388303Y-730656D01*
X6400088Y-741781D01*
X6413093Y-751484D01*
X6427165Y-759561D01*
G37*
G36*
X1203350Y-380187D02*
G01*
X1203350Y-302869D01*
X1125982Y-302869D01*
X1131163Y-314807D01*
X1139037Y-328472D01*
X1148435Y-341071D01*
X1159256Y-352552D01*
X1171295Y-362661D01*
X1184452Y-371348D01*
X1198575Y-378409D01*
G37*
G36*
X1301089Y-380187D02*
G01*
X1305864Y-378409D01*
X1319987Y-371348D01*
X1333144Y-362661D01*
X1345184Y-352552D01*
X1356004Y-341071D01*
X1365402Y-328472D01*
X1373276Y-314807D01*
X1378458Y-302869D01*
X1301089Y-302869D01*
G37*
G36*
X1301089Y-205130D02*
G01*
X1378458Y-205130D01*
X1373276Y-193192D01*
X1365402Y-179527D01*
X1356004Y-166928D01*
X1345184Y-155448D01*
X1333144Y-145338D01*
X1319987Y-136652D01*
X1305864Y-129590D01*
X1301089Y-127812D01*
G37*
G36*
X1125982Y-205130D02*
G01*
X1203350Y-205130D01*
X1203350Y-127812D01*
X1198575Y-129590D01*
X1184452Y-136652D01*
X1171295Y-145338D01*
X1159256Y-155448D01*
X1148435Y-166928D01*
X1139037Y-179527D01*
X1131163Y-193192D01*
G37*
G36*
X1180439Y353364D02*
G01*
X1218641Y353364D01*
X1218641Y462534D01*
X1129487Y462534D01*
X1129487Y404317D01*
X1130300Y395122D01*
X1132586Y386638D01*
X1136294Y378663D01*
X1141323Y371449D01*
X1147572Y365252D01*
X1154734Y360172D01*
X1162710Y356463D01*
X1171244Y354177D01*
G37*
G36*
X5683250Y363423D02*
G01*
X5683250Y438150D01*
X5609082Y438150D01*
X5615533Y423773D01*
X5623407Y410667D01*
X5632856Y398627D01*
X5643676Y387807D01*
X5655716Y378358D01*
X5668822Y370433D01*
X5681167Y364896D01*
G37*
G36*
X5772150Y363423D02*
G01*
X5774232Y364896D01*
X5786577Y370433D01*
X5799632Y378358D01*
X5811723Y387807D01*
X5822492Y398627D01*
X5831941Y410667D01*
X5839866Y423773D01*
X5846267Y438150D01*
X5772150Y438150D01*
G37*
G36*
X559562Y426415D02*
G01*
X563219Y427634D01*
X576326Y433781D01*
X588568Y441553D01*
X599744Y450799D01*
X609701Y461365D01*
X618185Y473100D01*
X625195Y485851D01*
X629259Y496163D01*
X559562Y496163D01*
G37*
G36*
X5772150Y527050D02*
G01*
X5846267Y527050D01*
X5839866Y541477D01*
X5831941Y554583D01*
X5822492Y566623D01*
X5811723Y577443D01*
X5799632Y586892D01*
X5786577Y594817D01*
X5774232Y600354D01*
X5772150Y601827D01*
G37*
G36*
X5609082Y527050D02*
G01*
X5683250Y527050D01*
X5683250Y601827D01*
X5681167Y600354D01*
X5668822Y594817D01*
X5655716Y586892D01*
X5643676Y577443D01*
X5632856Y566623D01*
X5623407Y554583D01*
X5615533Y541477D01*
G37*
G36*
X1129487Y605231D02*
G01*
X1218641Y605231D01*
X1218641Y714400D01*
X1180439Y714400D01*
X1171244Y713587D01*
X1162710Y711301D01*
X1154734Y707593D01*
X1147572Y702564D01*
X1141323Y696315D01*
X1136294Y689152D01*
X1132586Y681177D01*
X1130300Y672642D01*
X1129487Y663448D01*
G37*
G36*
X2418740Y773836D02*
G01*
X2488438Y773836D01*
X2488438Y843584D01*
X2484780Y842365D01*
X2471674Y836218D01*
X2459431Y828446D01*
X2448255Y819200D01*
X2438298Y808634D01*
X2429814Y796899D01*
X2422804Y784148D01*
G37*
G36*
X2566162Y773836D02*
G01*
X2635859Y773836D01*
X2631795Y784148D01*
X2624785Y796899D01*
X2616301Y808634D01*
X2606344Y819200D01*
X2595168Y828446D01*
X2582926Y836218D01*
X2569819Y842365D01*
X2566162Y843584D01*
G37*
G36*
X2176119Y972362D02*
G01*
X2192731Y972362D01*
X2209190Y974242D01*
X2225395Y978001D01*
X2241042Y983589D01*
X2255926Y990904D01*
X2269896Y999896D01*
X2282799Y1010412D01*
X2294331Y1022299D01*
X2304491Y1035456D01*
X2313076Y1049680D01*
X2319985Y1064818D01*
X2325116Y1080617D01*
X2328418Y1096873D01*
X2329840Y1113434D01*
X2329332Y1130046D01*
X2326995Y1146505D01*
X2322779Y1162558D01*
X2316734Y1178052D01*
X2309012Y1192733D01*
X2299614Y1206449D01*
X2288743Y1218996D01*
X2276500Y1230223D01*
X2268169Y1236319D01*
X2265476Y1239164D01*
X2264105Y1242822D01*
X2264206Y1246784D01*
X2265781Y1250340D01*
X2282799Y1264412D01*
X2294331Y1276299D01*
X2304491Y1289456D01*
X2313076Y1303680D01*
X2319477Y1317752D01*
X2238248Y1317752D01*
X2238248Y1266748D01*
X2237536Y1263040D01*
X2235555Y1259890D01*
X2232558Y1257604D01*
X2228951Y1256639D01*
X2225243Y1256995D01*
X2217369Y1259332D01*
X2200960Y1262126D01*
X2184400Y1263091D01*
X2167839Y1262126D01*
X2151430Y1259332D01*
X2143556Y1256995D01*
X2139848Y1256639D01*
X2136241Y1257604D01*
X2133244Y1259890D01*
X2131263Y1263040D01*
X2130552Y1266748D01*
X2130552Y1317752D01*
X2049322Y1317752D01*
X2055723Y1303680D01*
X2064308Y1289456D01*
X2074468Y1276299D01*
X2086000Y1264412D01*
X2103018Y1250340D01*
X2104593Y1246784D01*
X2104694Y1242822D01*
X2103323Y1239164D01*
X2100630Y1236319D01*
X2092299Y1230223D01*
X2081987Y1220774D01*
X2078837Y1218793D01*
X2075129Y1218082D01*
X1644700Y1218082D01*
X1641144Y1218742D01*
X1638046Y1220622D01*
X1624888Y1232001D01*
X1611325Y1241298D01*
X1596694Y1249019D01*
X1581353Y1255014D01*
X1565402Y1259179D01*
X1549044Y1261516D01*
X1532585Y1262024D01*
X1516126Y1260602D01*
X1499971Y1257300D01*
X1484274Y1252220D01*
X1469288Y1245362D01*
X1455166Y1236878D01*
X1442110Y1226769D01*
X1430274Y1215288D01*
X1419809Y1202537D01*
X1410919Y1188618D01*
X1403604Y1173835D01*
X1398066Y1158290D01*
X1394358Y1142238D01*
X1392478Y1125829D01*
X1392478Y1109370D01*
X1394358Y1092962D01*
X1398066Y1076909D01*
X1403604Y1061364D01*
X1410919Y1046581D01*
X1419809Y1032662D01*
X1430274Y1019911D01*
X1442110Y1008430D01*
X1455166Y998321D01*
X1469288Y989837D01*
X1484274Y982980D01*
X1499971Y977900D01*
X1516126Y974598D01*
X1532585Y973175D01*
X1549044Y973683D01*
X1565402Y976020D01*
X1581353Y980186D01*
X1596694Y986180D01*
X1611325Y993902D01*
X1624888Y1003198D01*
X1638046Y1014577D01*
X1641144Y1016457D01*
X1644700Y1017066D01*
X2075230Y1017066D01*
X2079193Y1016304D01*
X2082546Y1014018D01*
X2086000Y1010412D01*
X2098903Y999896D01*
X2112873Y990904D01*
X2127758Y983589D01*
X2143404Y978001D01*
X2159609Y974242D01*
G37*
G36*
X2049475Y1425448D02*
G01*
X2130552Y1425448D01*
X2130552Y1506524D01*
X2120188Y1502156D01*
X2105761Y1493977D01*
X2092299Y1484223D01*
X2080056Y1472996D01*
X2069185Y1460449D01*
X2059787Y1446733D01*
X2052066Y1432052D01*
G37*
G36*
X2238248Y1425448D02*
G01*
X2319324Y1425448D01*
X2316734Y1432052D01*
X2309012Y1446733D01*
X2299614Y1460449D01*
X2288743Y1472996D01*
X2276500Y1484223D01*
X2263038Y1493977D01*
X2248611Y1502156D01*
X2238248Y1506524D01*
G37*
G36*
X7085787Y1434388D02*
G01*
X7101840Y1434846D01*
X7117689Y1437132D01*
X7133234Y1441196D01*
X7148169Y1446987D01*
X7162342Y1454505D01*
X7175601Y1463548D01*
X7187742Y1474063D01*
X7198563Y1485849D01*
X7208012Y1498854D01*
X7214006Y1509522D01*
X7216292Y1512265D01*
X7219391Y1514043D01*
X7222896Y1514703D01*
X7859217Y1514703D01*
X7863331Y1513840D01*
X7866735Y1511401D01*
X7877708Y1499463D01*
X7889798Y1488948D01*
X7903057Y1479905D01*
X7917230Y1472387D01*
X7932166Y1466596D01*
X7947710Y1462532D01*
X7963560Y1460246D01*
X7979613Y1459788D01*
X7995615Y1461160D01*
X8011312Y1464310D01*
X8026552Y1469288D01*
X8041182Y1475943D01*
X8054898Y1484223D01*
X8067598Y1494028D01*
X8079130Y1505204D01*
X8089239Y1517599D01*
X8097926Y1531112D01*
X8104987Y1545488D01*
X8110423Y1560626D01*
X8114030Y1576222D01*
X8115858Y1592173D01*
X8115858Y1608226D01*
X8114030Y1624177D01*
X8110423Y1639773D01*
X8104987Y1654911D01*
X8097926Y1669288D01*
X8089239Y1682800D01*
X8079130Y1695196D01*
X8067598Y1706372D01*
X8065058Y1708353D01*
X8062925Y1710588D01*
X8061553Y1713331D01*
X8061096Y1716379D01*
X8061096Y1955596D01*
X8060893Y1961896D01*
X8060232Y1967992D01*
X8059166Y1973986D01*
X8057642Y1979879D01*
X8055711Y1985670D01*
X8053374Y1991309D01*
X8050631Y1996795D01*
X8047532Y2002028D01*
X8044027Y2007057D01*
X8040217Y2011781D01*
X8035950Y2016404D01*
X8030159Y2022144D01*
X8027974Y2025446D01*
X8027212Y2029307D01*
X8027212Y2134260D01*
X8026400Y2143455D01*
X8024114Y2151938D01*
X8020405Y2159914D01*
X8015376Y2167128D01*
X8009128Y2173376D01*
X8001914Y2178405D01*
X7993938Y2182114D01*
X7990992Y2182926D01*
X7987284Y2184806D01*
X7984642Y2187956D01*
X7983474Y2191918D01*
X7984032Y2196033D01*
X7986115Y2199589D01*
X7995462Y2209749D01*
X8004911Y2222754D01*
X8012785Y2236724D01*
X8019034Y2251506D01*
X8023555Y2266899D01*
X8026298Y2282698D01*
X8027212Y2298700D01*
X8026298Y2314702D01*
X8023555Y2330500D01*
X8019034Y2345893D01*
X8012785Y2360676D01*
X8004911Y2374646D01*
X7995462Y2387650D01*
X7984591Y2399436D01*
X7972501Y2409952D01*
X7961731Y2417318D01*
X7958988Y2420112D01*
X7957515Y2423718D01*
X7957515Y2427681D01*
X7958988Y2431288D01*
X7961731Y2434082D01*
X7972501Y2441448D01*
X7984591Y2451963D01*
X7995462Y2463749D01*
X8004911Y2476754D01*
X8012785Y2490724D01*
X8017256Y2501341D01*
X7938058Y2501341D01*
X7938058Y2443429D01*
X7937398Y2439771D01*
X7935468Y2436622D01*
X7932521Y2434386D01*
X7928965Y2433320D01*
X7925308Y2433574D01*
X7914589Y2436368D01*
X7898739Y2438654D01*
X7882686Y2439111D01*
X7866684Y2437739D01*
X7850987Y2434590D01*
X7848650Y2433828D01*
X7844891Y2433320D01*
X7841183Y2434285D01*
X7838084Y2436520D01*
X7836052Y2439720D01*
X7835341Y2443480D01*
X7835341Y2501341D01*
X7756093Y2501341D01*
X7757312Y2497988D01*
X7764373Y2483612D01*
X7773060Y2470099D01*
X7783169Y2457704D01*
X7794701Y2446528D01*
X7807401Y2436723D01*
X7811262Y2434386D01*
X7814309Y2431592D01*
X7815935Y2427782D01*
X7815935Y2423617D01*
X7814309Y2419807D01*
X7811262Y2417013D01*
X7807401Y2414676D01*
X7794701Y2404872D01*
X7783169Y2393696D01*
X7773060Y2381300D01*
X7764373Y2367788D01*
X7757109Y2352852D01*
X7754924Y2349347D01*
X7751572Y2346960D01*
X7747508Y2346096D01*
X7360361Y2346096D01*
X7357211Y2346604D01*
X7354366Y2348026D01*
X7339685Y2364181D01*
X7327239Y2375001D01*
X7313625Y2384298D01*
X7298994Y2392019D01*
X7283653Y2398014D01*
X7267702Y2402179D01*
X7251344Y2404516D01*
X7234885Y2405024D01*
X7218425Y2403602D01*
X7202271Y2400300D01*
X7186574Y2395220D01*
X7171588Y2388362D01*
X7157466Y2379878D01*
X7144410Y2369769D01*
X7132574Y2358288D01*
X7122109Y2345537D01*
X7113219Y2331618D01*
X7105903Y2316835D01*
X7100366Y2301290D01*
X7096658Y2285238D01*
X7094778Y2268829D01*
X7094778Y2252370D01*
X7096658Y2235962D01*
X7100366Y2219909D01*
X7105903Y2204364D01*
X7113219Y2189581D01*
X7122109Y2175662D01*
X7132574Y2162911D01*
X7144410Y2151430D01*
X7157466Y2141321D01*
X7171588Y2132838D01*
X7186574Y2125980D01*
X7202271Y2120900D01*
X7218425Y2117598D01*
X7234885Y2116175D01*
X7251344Y2116683D01*
X7267702Y2119020D01*
X7283653Y2123186D01*
X7298994Y2129180D01*
X7313625Y2136902D01*
X7327239Y2146198D01*
X7339685Y2157018D01*
X7354366Y2173173D01*
X7357211Y2174595D01*
X7360361Y2175103D01*
X7744104Y2175103D01*
X7748066Y2174290D01*
X7751419Y2172004D01*
X7753603Y2168550D01*
X7754264Y2164588D01*
X7753299Y2160625D01*
X7749286Y2151938D01*
X7747000Y2143455D01*
X7746187Y2134260D01*
X7746187Y1955139D01*
X7747000Y1945944D01*
X7749286Y1937461D01*
X7752994Y1929485D01*
X7758023Y1922272D01*
X7764272Y1916023D01*
X7771485Y1910994D01*
X7779461Y1907286D01*
X7787944Y1905000D01*
X7797139Y1904187D01*
X7879943Y1904187D01*
X7883804Y1903425D01*
X7887106Y1901240D01*
X7889341Y1897938D01*
X7890103Y1894027D01*
X7890103Y1716328D01*
X7889189Y1712112D01*
X7886598Y1708657D01*
X7877708Y1700936D01*
X7866735Y1688998D01*
X7863331Y1686560D01*
X7859217Y1685696D01*
X7179259Y1685696D01*
X7176262Y1686153D01*
X7173518Y1687474D01*
X7162342Y1695094D01*
X7148169Y1702612D01*
X7133234Y1708404D01*
X7117689Y1712468D01*
X7101840Y1714754D01*
X7085787Y1715211D01*
X7069836Y1713839D01*
X7054088Y1710689D01*
X7038848Y1705711D01*
X7024217Y1699056D01*
X7010501Y1690776D01*
X6997801Y1680972D01*
X6986320Y1669796D01*
X6976160Y1657400D01*
X6967474Y1643888D01*
X6960412Y1629511D01*
X6955028Y1614373D01*
X6951370Y1598777D01*
X6949541Y1582826D01*
X6949541Y1566773D01*
X6951370Y1550822D01*
X6955028Y1535226D01*
X6960412Y1520088D01*
X6967474Y1505712D01*
X6976160Y1492199D01*
X6986320Y1479804D01*
X6997801Y1468628D01*
X7010501Y1458823D01*
X7024217Y1450543D01*
X7038848Y1443888D01*
X7054088Y1438910D01*
X7069836Y1435760D01*
G37*
G36*
X7938058Y2604058D02*
G01*
X8017256Y2604058D01*
X8012785Y2614676D01*
X8004911Y2628646D01*
X7995462Y2641650D01*
X7984591Y2653436D01*
X7972501Y2663952D01*
X7959242Y2672994D01*
X7945069Y2680512D01*
X7938058Y2683205D01*
G37*
G36*
X7756093Y2604058D02*
G01*
X7835341Y2604058D01*
X7835341Y2683459D01*
X7821117Y2676956D01*
X7807401Y2668676D01*
X7794701Y2658872D01*
X7783169Y2647696D01*
X7773060Y2635300D01*
X7764373Y2621788D01*
X7757312Y2607411D01*
G37*
G36*
X2055469Y2620213D02*
G01*
X2064410Y2623921D01*
X2079193Y2632100D01*
X2092960Y2641854D01*
X2105507Y2653080D01*
X2116785Y2665679D01*
X2126538Y2679446D01*
X2134717Y2694228D01*
X2138426Y2703169D01*
X2055469Y2703169D01*
G37*
G36*
X2705455Y2620213D02*
G01*
X2714396Y2623921D01*
X2729179Y2632100D01*
X2742946Y2641854D01*
X2755493Y2653080D01*
X2766771Y2665679D01*
X2776524Y2679446D01*
X2784703Y2694228D01*
X2788412Y2703169D01*
X2705455Y2703169D01*
G37*
G36*
X2592730Y2620213D02*
G01*
X2592730Y2703169D01*
X2509774Y2703169D01*
X2513482Y2694228D01*
X2521661Y2679446D01*
X2531414Y2665679D01*
X2542692Y2653080D01*
X2555240Y2641854D01*
X2569006Y2632100D01*
X2583789Y2623921D01*
G37*
G36*
X1942744Y2620213D02*
G01*
X1942744Y2703169D01*
X1859788Y2703169D01*
X1863496Y2694228D01*
X1871675Y2679446D01*
X1881428Y2665679D01*
X1892706Y2653080D01*
X1905254Y2641854D01*
X1919020Y2632100D01*
X1933803Y2623921D01*
G37*
G36*
X1358138Y2775915D02*
G01*
X1358138Y2845663D01*
X1288440Y2845663D01*
X1292504Y2835351D01*
X1299514Y2822600D01*
X1307998Y2810865D01*
X1317955Y2800299D01*
X1329131Y2791053D01*
X1341374Y2783281D01*
X1354480Y2777134D01*
G37*
G36*
X1435862Y2775915D02*
G01*
X1439519Y2777134D01*
X1452626Y2783281D01*
X1464868Y2791053D01*
X1476044Y2800299D01*
X1486001Y2810865D01*
X1494485Y2822600D01*
X1501495Y2835351D01*
X1505559Y2845663D01*
X1435862Y2845663D01*
G37*
G36*
X2509774Y2815844D02*
G01*
X2592730Y2815844D01*
X2592730Y2898800D01*
X2583789Y2895092D01*
X2569006Y2886913D01*
X2555240Y2877159D01*
X2542692Y2865932D01*
X2531414Y2853334D01*
X2521661Y2839567D01*
X2513482Y2824784D01*
G37*
G36*
X2055469Y2815844D02*
G01*
X2138426Y2815844D01*
X2134717Y2824784D01*
X2126538Y2839567D01*
X2116785Y2853334D01*
X2105507Y2865932D01*
X2092960Y2877159D01*
X2079193Y2886913D01*
X2064410Y2895092D01*
X2055469Y2898800D01*
G37*
G36*
X2705455Y2815844D02*
G01*
X2788412Y2815844D01*
X2784703Y2824784D01*
X2776524Y2839567D01*
X2766771Y2853334D01*
X2755493Y2865932D01*
X2742946Y2877159D01*
X2729179Y2886913D01*
X2714396Y2895092D01*
X2705455Y2898800D01*
G37*
G36*
X1859788Y2815844D02*
G01*
X1942744Y2815844D01*
X1942744Y2898800D01*
X1933803Y2895092D01*
X1919020Y2886913D01*
X1905254Y2877159D01*
X1892706Y2865932D01*
X1881428Y2853334D01*
X1871675Y2839567D01*
X1863496Y2824784D01*
G37*
G36*
X7806334Y3461359D02*
G01*
X7822946Y3461867D01*
X7839405Y3464204D01*
X7855458Y3468420D01*
X7870952Y3474465D01*
X7885633Y3482187D01*
X7899349Y3491585D01*
X7911896Y3502456D01*
X7923123Y3514699D01*
X7929219Y3523030D01*
X7932064Y3525723D01*
X7935722Y3527094D01*
X7939684Y3526993D01*
X7943240Y3525418D01*
X7957312Y3508400D01*
X7969199Y3496868D01*
X7982356Y3486708D01*
X7996580Y3478123D01*
X8010652Y3471722D01*
X8010652Y3552951D01*
X7959648Y3552951D01*
X7955940Y3553663D01*
X7952790Y3555644D01*
X7950504Y3558641D01*
X7949539Y3562248D01*
X7949895Y3565956D01*
X7952231Y3573830D01*
X7955025Y3590239D01*
X7955991Y3606800D01*
X7955025Y3623360D01*
X7952231Y3639769D01*
X7949895Y3647643D01*
X7949539Y3651351D01*
X7950504Y3654958D01*
X7952790Y3657955D01*
X7955940Y3659936D01*
X7959648Y3660648D01*
X8010652Y3660648D01*
X8010652Y3741877D01*
X7996580Y3735476D01*
X7982356Y3726891D01*
X7969199Y3716731D01*
X7957312Y3705199D01*
X7943240Y3688181D01*
X7939684Y3686606D01*
X7935722Y3686505D01*
X7932064Y3687876D01*
X7929219Y3690569D01*
X7923123Y3698900D01*
X7911896Y3711143D01*
X7899349Y3722014D01*
X7885633Y3731412D01*
X7870952Y3739134D01*
X7855458Y3745179D01*
X7839405Y3749395D01*
X7822946Y3751732D01*
X7806334Y3752240D01*
X7789773Y3750818D01*
X7773517Y3747515D01*
X7757718Y3742385D01*
X7742580Y3735476D01*
X7728356Y3726891D01*
X7715199Y3716731D01*
X7703312Y3705199D01*
X7695844Y3696055D01*
X7692339Y3693312D01*
X7687970Y3692296D01*
X7443724Y3692296D01*
X7439863Y3693058D01*
X7436561Y3695293D01*
X7372654Y3759200D01*
X7370318Y3762756D01*
X7369708Y3766972D01*
X7370775Y3784600D01*
X7369809Y3801059D01*
X7367016Y3817315D01*
X7362393Y3833164D01*
X7355941Y3848354D01*
X7347813Y3862730D01*
X7338161Y3876040D01*
X7326985Y3888181D01*
X7314539Y3899001D01*
X7300925Y3908298D01*
X7286294Y3916019D01*
X7270953Y3922014D01*
X7255002Y3926179D01*
X7238644Y3928516D01*
X7222185Y3929024D01*
X7205725Y3927601D01*
X7189571Y3924300D01*
X7173874Y3919220D01*
X7158888Y3912362D01*
X7144766Y3903878D01*
X7131710Y3893769D01*
X7119874Y3882288D01*
X7109409Y3869537D01*
X7100519Y3855618D01*
X7093203Y3840835D01*
X7087666Y3825290D01*
X7083958Y3809237D01*
X7082078Y3792829D01*
X7082078Y3776370D01*
X7083958Y3759962D01*
X7087666Y3743909D01*
X7093203Y3728364D01*
X7100519Y3713581D01*
X7109409Y3699662D01*
X7119874Y3686911D01*
X7131710Y3675430D01*
X7144766Y3665321D01*
X7158888Y3656837D01*
X7173874Y3649979D01*
X7189571Y3644900D01*
X7205725Y3641598D01*
X7222185Y3640175D01*
X7238644Y3640683D01*
X7242962Y3641293D01*
X7246061Y3641242D01*
X7249058Y3640226D01*
X7251547Y3638397D01*
X7343495Y3546449D01*
X7348118Y3542182D01*
X7352842Y3538372D01*
X7357872Y3534867D01*
X7363104Y3531768D01*
X7368590Y3529025D01*
X7374229Y3526688D01*
X7380020Y3524758D01*
X7385913Y3523234D01*
X7391908Y3522167D01*
X7398003Y3521506D01*
X7404303Y3521303D01*
X7687970Y3521303D01*
X7692339Y3520287D01*
X7695844Y3517544D01*
X7703312Y3508400D01*
X7715199Y3496868D01*
X7728356Y3486708D01*
X7742580Y3478123D01*
X7757718Y3471214D01*
X7773517Y3466084D01*
X7789773Y3462782D01*
G37*
G36*
X8118348Y3471875D02*
G01*
X8124952Y3474465D01*
X8139633Y3482187D01*
X8153349Y3491585D01*
X8165896Y3502456D01*
X8177123Y3514699D01*
X8186877Y3528161D01*
X8195056Y3542588D01*
X8199424Y3552951D01*
X8118348Y3552951D01*
G37*
G36*
X8118348Y3660648D02*
G01*
X8199424Y3660648D01*
X8195056Y3671011D01*
X8186877Y3685438D01*
X8177123Y3698900D01*
X8165896Y3711143D01*
X8153349Y3722014D01*
X8139633Y3731412D01*
X8124952Y3739134D01*
X8118348Y3741724D01*
G37*
G36*
X8305800Y4429709D02*
G01*
X8310219Y4431284D01*
X8324697Y4438599D01*
X8338261Y4447489D01*
X8350656Y4457903D01*
X8361781Y4469688D01*
X8371484Y4482693D01*
X8379561Y4496765D01*
X8384641Y4508500D01*
X8305800Y4508500D01*
G37*
G36*
X8305800Y4610100D02*
G01*
X8384641Y4610100D01*
X8379561Y4621834D01*
X8371484Y4635906D01*
X8361781Y4648911D01*
X8350656Y4660696D01*
X8338261Y4671110D01*
X8324697Y4680000D01*
X8310219Y4687316D01*
X8305800Y4688890D01*
G37*
G36*
X5524144Y5356199D02*
G01*
X5524144Y5439156D01*
X5441188Y5439156D01*
X5444896Y5430215D01*
X5453075Y5415432D01*
X5462828Y5401665D01*
X5474106Y5389067D01*
X5486654Y5377840D01*
X5500420Y5368086D01*
X5515203Y5359908D01*
G37*
G36*
X5636869Y5356199D02*
G01*
X5645810Y5359908D01*
X5660593Y5368086D01*
X5674360Y5377840D01*
X5686907Y5389067D01*
X5698185Y5401665D01*
X5707938Y5415432D01*
X5716117Y5430215D01*
X5719826Y5439156D01*
X5636869Y5439156D01*
G37*
G36*
X6174130Y5356199D02*
G01*
X6174130Y5439156D01*
X6091174Y5439156D01*
X6094882Y5430215D01*
X6103061Y5415432D01*
X6112814Y5401665D01*
X6124092Y5389067D01*
X6136640Y5377840D01*
X6150406Y5368086D01*
X6165189Y5359908D01*
G37*
G36*
X6286855Y5356199D02*
G01*
X6295796Y5359908D01*
X6310579Y5368086D01*
X6324346Y5377840D01*
X6336893Y5389067D01*
X6348171Y5401665D01*
X6357924Y5415432D01*
X6366103Y5430215D01*
X6369812Y5439156D01*
X6286855Y5439156D01*
G37*
G36*
X3126130Y5368899D02*
G01*
X3126130Y5451856D01*
X3043174Y5451856D01*
X3046882Y5442915D01*
X3055061Y5428132D01*
X3064814Y5414365D01*
X3076092Y5401767D01*
X3088640Y5390540D01*
X3102406Y5380786D01*
X3117189Y5372608D01*
G37*
G36*
X2588869Y5368899D02*
G01*
X2597810Y5372608D01*
X2612593Y5380786D01*
X2626360Y5390540D01*
X2638907Y5401767D01*
X2650185Y5414365D01*
X2659938Y5428132D01*
X2668117Y5442915D01*
X2671826Y5451856D01*
X2588869Y5451856D01*
G37*
G36*
X3238855Y5368899D02*
G01*
X3247796Y5372608D01*
X3262579Y5380786D01*
X3276346Y5390540D01*
X3288893Y5401767D01*
X3300171Y5414365D01*
X3309924Y5428132D01*
X3318103Y5442915D01*
X3321812Y5451856D01*
X3238855Y5451856D01*
G37*
G36*
X2476144Y5368899D02*
G01*
X2476144Y5451856D01*
X2393188Y5451856D01*
X2396896Y5442915D01*
X2405075Y5428132D01*
X2414828Y5414365D01*
X2426106Y5401767D01*
X2438654Y5390540D01*
X2452420Y5380786D01*
X2467203Y5372608D01*
G37*
G36*
X4000144Y5368899D02*
G01*
X4000144Y5451856D01*
X3917187Y5451856D01*
X3920896Y5442915D01*
X3929075Y5428132D01*
X3938828Y5414365D01*
X3950106Y5401767D01*
X3962654Y5390540D01*
X3976420Y5380786D01*
X3991203Y5372608D01*
G37*
G36*
X4762855Y5368899D02*
G01*
X4771796Y5372608D01*
X4786579Y5380786D01*
X4800346Y5390540D01*
X4812893Y5401767D01*
X4824171Y5414365D01*
X4833924Y5428132D01*
X4842103Y5442915D01*
X4845812Y5451856D01*
X4762855Y5451856D01*
G37*
G36*
X4112869Y5368899D02*
G01*
X4121810Y5372608D01*
X4136593Y5380786D01*
X4150360Y5390540D01*
X4162907Y5401767D01*
X4174185Y5414365D01*
X4183938Y5428132D01*
X4192117Y5442915D01*
X4195826Y5451856D01*
X4112869Y5451856D01*
G37*
G36*
X4650130Y5368899D02*
G01*
X4650130Y5451856D01*
X4567174Y5451856D01*
X4570882Y5442915D01*
X4579061Y5428132D01*
X4588814Y5414365D01*
X4600092Y5401767D01*
X4612640Y5390540D01*
X4626406Y5380786D01*
X4641189Y5372608D01*
G37*
G36*
X1064869Y5368899D02*
G01*
X1073810Y5372608D01*
X1088593Y5380786D01*
X1102360Y5390540D01*
X1114907Y5401767D01*
X1126185Y5414365D01*
X1135938Y5428132D01*
X1144117Y5442915D01*
X1147826Y5451856D01*
X1064869Y5451856D01*
G37*
G36*
X1602130Y5368899D02*
G01*
X1602130Y5451856D01*
X1519174Y5451856D01*
X1522882Y5442915D01*
X1531061Y5428132D01*
X1540814Y5414365D01*
X1552092Y5401767D01*
X1564640Y5390540D01*
X1578406Y5380786D01*
X1593189Y5372608D01*
G37*
G36*
X1714855Y5368899D02*
G01*
X1723796Y5372608D01*
X1738579Y5380786D01*
X1752346Y5390540D01*
X1764893Y5401767D01*
X1776171Y5414365D01*
X1785924Y5428132D01*
X1794103Y5442915D01*
X1797812Y5451856D01*
X1714855Y5451856D01*
G37*
G36*
X952144Y5368899D02*
G01*
X952144Y5451856D01*
X869187Y5451856D01*
X872896Y5442915D01*
X881075Y5428132D01*
X890828Y5414365D01*
X902106Y5401767D01*
X914653Y5390540D01*
X928420Y5380786D01*
X943203Y5372608D01*
G37*
G36*
X6286855Y5551830D02*
G01*
X6369812Y5551830D01*
X6366103Y5560771D01*
X6357924Y5575554D01*
X6348171Y5589320D01*
X6336893Y5601919D01*
X6324346Y5613146D01*
X6310579Y5622899D01*
X6295796Y5631078D01*
X6286855Y5634786D01*
G37*
G36*
X5441188Y5551830D02*
G01*
X5524144Y5551830D01*
X5524144Y5634786D01*
X5515203Y5631078D01*
X5500420Y5622899D01*
X5486654Y5613146D01*
X5474106Y5601919D01*
X5462828Y5589320D01*
X5453075Y5575554D01*
X5444896Y5560771D01*
G37*
G36*
X5636869Y5551830D02*
G01*
X5719826Y5551830D01*
X5716117Y5560771D01*
X5707938Y5575554D01*
X5698185Y5589320D01*
X5686907Y5601919D01*
X5674360Y5613146D01*
X5660593Y5622899D01*
X5645810Y5631078D01*
X5636869Y5634786D01*
G37*
G36*
X6091174Y5551830D02*
G01*
X6174130Y5551830D01*
X6174130Y5634786D01*
X6165189Y5631078D01*
X6150406Y5622899D01*
X6136640Y5613146D01*
X6124092Y5601919D01*
X6112814Y5589320D01*
X6103061Y5575554D01*
X6094882Y5560771D01*
G37*
G36*
X3043174Y5564530D02*
G01*
X3126130Y5564530D01*
X3126130Y5647486D01*
X3117189Y5643778D01*
X3102406Y5635599D01*
X3088640Y5625846D01*
X3076092Y5614619D01*
X3064814Y5602020D01*
X3055061Y5588254D01*
X3046882Y5573471D01*
G37*
G36*
X2588869Y5564530D02*
G01*
X2671826Y5564530D01*
X2668117Y5573471D01*
X2659938Y5588254D01*
X2650185Y5602020D01*
X2638907Y5614619D01*
X2626360Y5625846D01*
X2612593Y5635599D01*
X2597810Y5643778D01*
X2588869Y5647486D01*
G37*
G36*
X3238855Y5564530D02*
G01*
X3321812Y5564530D01*
X3318103Y5573471D01*
X3309924Y5588254D01*
X3300171Y5602020D01*
X3288893Y5614619D01*
X3276346Y5625846D01*
X3262579Y5635599D01*
X3247796Y5643778D01*
X3238855Y5647486D01*
G37*
G36*
X2393188Y5564530D02*
G01*
X2476144Y5564530D01*
X2476144Y5647486D01*
X2467203Y5643778D01*
X2452420Y5635599D01*
X2438654Y5625846D01*
X2426106Y5614619D01*
X2414828Y5602020D01*
X2405075Y5588254D01*
X2396896Y5573471D01*
G37*
G36*
X3917187Y5564530D02*
G01*
X4000144Y5564530D01*
X4000144Y5647486D01*
X3991203Y5643778D01*
X3976420Y5635599D01*
X3962654Y5625846D01*
X3950106Y5614619D01*
X3938828Y5602020D01*
X3929075Y5588254D01*
X3920896Y5573471D01*
G37*
G36*
X4112869Y5564530D02*
G01*
X4195826Y5564530D01*
X4192117Y5573471D01*
X4183938Y5588254D01*
X4174185Y5602020D01*
X4162907Y5614619D01*
X4150360Y5625846D01*
X4136593Y5635599D01*
X4121810Y5643778D01*
X4112869Y5647486D01*
G37*
G36*
X4567174Y5564530D02*
G01*
X4650130Y5564530D01*
X4650130Y5647486D01*
X4641189Y5643778D01*
X4626406Y5635599D01*
X4612640Y5625846D01*
X4600092Y5614619D01*
X4588814Y5602020D01*
X4579061Y5588254D01*
X4570882Y5573471D01*
G37*
G36*
X4762855Y5564530D02*
G01*
X4845812Y5564530D01*
X4842103Y5573471D01*
X4833924Y5588254D01*
X4824171Y5602020D01*
X4812893Y5614619D01*
X4800346Y5625846D01*
X4786579Y5635599D01*
X4771796Y5643778D01*
X4762855Y5647486D01*
G37*
G36*
X1064869Y5564530D02*
G01*
X1147826Y5564530D01*
X1144117Y5573471D01*
X1135938Y5588254D01*
X1126185Y5602020D01*
X1114907Y5614619D01*
X1102360Y5625846D01*
X1088593Y5635599D01*
X1073810Y5643778D01*
X1064869Y5647486D01*
G37*
G36*
X869187Y5564530D02*
G01*
X952144Y5564530D01*
X952144Y5647486D01*
X943203Y5643778D01*
X928420Y5635599D01*
X914653Y5625846D01*
X902106Y5614619D01*
X890828Y5602020D01*
X881075Y5588254D01*
X872896Y5573471D01*
G37*
G36*
X1519174Y5564530D02*
G01*
X1602130Y5564530D01*
X1602130Y5647486D01*
X1593189Y5643778D01*
X1578406Y5635599D01*
X1564640Y5625846D01*
X1552092Y5614619D01*
X1540814Y5602020D01*
X1531061Y5588254D01*
X1522882Y5573471D01*
G37*
G36*
X1714855Y5564530D02*
G01*
X1797812Y5564530D01*
X1794103Y5573471D01*
X1785924Y5588254D01*
X1776171Y5602020D01*
X1764893Y5614619D01*
X1752346Y5625846D01*
X1738579Y5635599D01*
X1723796Y5643778D01*
X1714855Y5647486D01*
G37*

%LPD*%
D10*
X6219697Y1574800D02*
G01*
X6426200Y1574800D01*
X6743700Y1892300D01*
X6743700Y3860800D01*
X7086600Y4203700D01*
X7797800Y4203700D01*
X8001000Y4406900D01*
X8001000Y4559300D01*
X7886700Y2552700D02*
G01*
X8064500Y2730500D01*
X8064500Y3606800D01*
X8255000Y4559300D02*
G01*
X8255000Y3797300D01*
X8064500Y3606800D01*
D11*
X7226300Y3784600D02*
G01*
X7404100Y3606800D01*
X7810500Y3606800D01*
D10*
X2527300Y735076D02*
G01*
X2527300Y1219200D01*
X2374900Y1371600D01*
X2184400Y1371600D01*
X520700Y1117600D02*
G01*
X520700Y3162300D01*
X1143000Y3784600D01*
X1625600Y3784600D01*
X1524000Y533907D02*
G01*
X1524000Y736600D01*
X1384300Y876300D01*
X660400Y876300D01*
X520700Y735076D01*
X1625600Y3784600D02*
G01*
X1130300Y3784600D01*
X139700Y4775200D01*
X139700Y5588000D01*
X622300Y6070600D01*
D11*
X6210300Y736600D02*
G01*
X6210300Y0D01*
X6337300Y-127000D01*
X6489700Y-127000D01*
X5727700Y3530600D02*
G01*
X5727700Y3543300D01*
X5372100Y3543300D01*
X5168900Y3746500D01*
X5168900Y4394200D01*
X5600700Y4826000D01*
X7607300Y4826000D01*
X7747000Y4686300D01*
X7747000Y4559300D01*
D10*
X5727700Y482600D02*
G01*
X5384800Y482600D01*
X4876800Y-25400D01*
X3124200Y-25400D01*
X2882900Y215900D01*
X2882900Y533400D01*
X2681224Y735076D01*
X2527300Y735076D01*
X1397000Y2884423D02*
G01*
X1268476Y2884423D01*
X1143000Y3009900D01*
X1143000Y3225800D01*
X1422400Y3505200D01*
X1727200Y3505200D01*
X1993900Y3771900D01*
X1752600Y4013200D01*
X1257300Y4013200D01*
X317500Y4953000D01*
X317500Y5245100D01*
X546100Y5473700D01*
X974089Y5473700D01*
X1008634Y5508244D01*
X5727700Y482600D02*
G01*
X5880100Y482600D01*
X5994400Y368300D01*
X5994400Y-292100D01*
X6337300Y-635000D01*
X6489700Y-635000D01*
X520700Y736600D02*
G01*
X431800Y736600D01*
X317500Y622300D01*
X317500Y-214376D01*
X965200Y-862076D01*
X2171700Y-862076D01*
X2767075Y-266700D01*
X5230875Y-266700D01*
X5727700Y230123D01*
D11*
X2146300Y5054600D02*
G01*
X2528900Y5054600D01*
X2532509Y5058209D01*
X622300Y5054600D02*
G01*
X1004900Y5054600D01*
X1008509Y5058209D01*
X5727712Y3784587D02*
G01*
X6210287Y3784587D01*
X7975600Y1600200D02*
G01*
X7975600Y1955800D01*
X7886700Y2044700D01*
X7975600Y1600200D02*
G01*
X7115200Y1600200D01*
X7089800Y1574800D01*
X2649093Y3209493D02*
G01*
X2649093Y3777106D01*
X2641600Y3784600D01*
X1008509Y5058209D02*
G01*
X1658490Y5058209D01*
X3187725Y3530574D02*
G01*
X3670274Y3530574D01*
X3784600Y3644900D01*
X3784600Y4013200D01*
X3340100Y4457700D01*
X2258999Y4457700D01*
X1658493Y5058206D01*
X5727712Y2768587D02*
G01*
X6083287Y2768587D01*
X6489700Y3175000D01*
X6489700Y4318000D01*
X6731000Y4559300D01*
X7493000Y4559300D01*
X7239000Y2260600D02*
G01*
X7848600Y2260600D01*
X7886700Y2298700D01*
X5727712Y2260587D02*
G01*
X6222987Y2260587D01*
X5727700Y736600D02*
G01*
X6210300Y736600D01*
D10*
X1536700Y1117600D02*
G01*
X2184400Y1117600D01*
D11*
X1999109Y3209490D02*
G01*
X1521990Y3209490D01*
X1397000Y3084499D01*
D10*
X1780539Y-254000D02*
G01*
X1778000Y532892D01*
X622300Y6070600D02*
G01*
X5194300Y6070600D01*
X520700Y734999D02*
G01*
X520700Y1117600D01*
X7226300Y736600D02*
G01*
X7057999Y736600D01*
X6219799Y1574800D01*
X7975600Y838200D02*
G01*
X7327900Y838200D01*
X7226300Y736600D01*
X6489700Y127000D02*
G01*
X6616700Y127000D01*
X7226300Y736600D01*
X5727700Y228600D02*
G01*
X5727700Y-406400D01*
X6223000Y-901700D01*
X6616700Y-901700D01*
X6870700Y-647700D01*
X6870700Y-114300D01*
X6629400Y127000D01*
X6489700Y127000D01*
D11*
X3187725Y3276574D02*
G01*
X3860774Y3276574D01*
X4178300Y3594100D01*
X4178300Y4062399D01*
X3182493Y5058206D01*
X3187725Y3022574D02*
G01*
X3962374Y3022574D01*
X4419600Y3479800D01*
X4419600Y4305300D01*
X3670300Y5054600D01*
X3187725Y2768574D02*
G01*
X4229074Y2768574D01*
X4940300Y3479800D01*
X4940300Y4800600D01*
X5194300Y5054600D01*
D10*
X8255000Y4559300D02*
G01*
X8255000Y4838700D01*
X7598156Y5495544D01*
X6230365Y5495544D01*
D11*
X2532509Y5058209D02*
G01*
X3182490Y5058209D01*
X3670300Y5054600D02*
G01*
X4052900Y5054600D01*
X4056509Y5058209D01*
X4056509Y5058209D02*
G01*
X4706490Y5058209D01*
X5194300Y5054600D02*
G01*
X5571418Y5054600D01*
X5580509Y5045509D01*
X5580509Y5045509D02*
G01*
X6230490Y5045509D01*
D10*
X1008509Y5508190D02*
G01*
X1658490Y5508190D01*
X1658490Y5508190D02*
G01*
X2532509Y5508190D01*
X2532509Y5508190D02*
G01*
X3182490Y5508190D01*
X3182490Y5508190D02*
G01*
X4056509Y5508190D01*
X4056509Y5508190D02*
G01*
X4706490Y5508190D01*
X4706490Y5508190D02*
G01*
X5567809Y5508190D01*
X5580509Y5495490D01*
X5580509Y5495490D02*
G01*
X6230490Y5495490D01*
X1252220Y-254000D02*
G01*
X1252220Y-261620D01*
X1676400Y-685800D01*
X1981200Y-685800D01*
X2882900Y215900D01*
X1252220Y-254000D02*
G01*
X1270000Y-236220D01*
X1270000Y533907D01*
X1270000Y533907D02*
G01*
X520700Y534923D01*
X1778000Y532892D02*
G01*
X2527300Y534923D01*
X2184400Y1371600D02*
G01*
X2184400Y2574213D01*
X1999106Y2759506D01*
D11*
X2641600Y3784600D02*
G01*
X3187712Y3784612D01*
X2649093Y3209493D02*
G01*
X1999106Y3209493D01*
D10*
X2649093Y2759506D02*
G01*
X1999106Y2759506D01*
X1999109Y2759509D02*
G01*
X1521990Y2759509D01*
X1397000Y2884500D01*
D12*
G01*
X520700Y1117600D03*
G01*
X1536700Y1117600D03*
D13*
G01*
X1397000Y3084499D03*
G01*
X1397000Y2884500D03*
G01*
X520700Y734999D03*
G01*
X520700Y535000D03*
G01*
X2527300Y535000D03*
G01*
X2527300Y734999D03*
D14*
G01*
X7810500Y3606800D03*
G01*
X8064500Y3606800D03*
G01*
X2184400Y1117600D03*
G01*
X2184400Y1371600D03*
D15*
G01*
X6219799Y1574800D03*
G01*
X7089800Y1574800D03*
D16*
G01*
X7493000Y4559300D03*
G01*
X7747000Y4559300D03*
G01*
X8001000Y4559300D03*
G01*
X8255000Y4559300D03*
G01*
X6489700Y127000D03*
G01*
X6489700Y-127000D03*
G01*
X6489700Y-381000D03*
G01*
X6489700Y-635000D03*
D15*
G01*
X7975600Y838200D03*
G01*
X7975600Y1600200D03*
D17*
G01*
X7886700Y2044700D03*
D15*
G01*
X7886700Y2298700D03*
G01*
X7886700Y2552700D03*
D12*
G01*
X6210300Y3784600D03*
G01*
X7226300Y3784600D03*
G01*
X2641600Y3784600D03*
G01*
X1625600Y3784600D03*
G01*
X6223000Y2260600D03*
G01*
X7239000Y2260600D03*
G01*
X6210300Y736600D03*
G01*
X7226300Y736600D03*
G01*
X622300Y5054600D03*
G01*
X622300Y6070600D03*
G01*
X2146300Y5054600D03*
G01*
X2146300Y6070600D03*
G01*
X3670300Y5054600D03*
G01*
X3670300Y6070600D03*
G01*
X5194300Y5054600D03*
G01*
X5194300Y6070600D03*
D18*
G01*
X1999106Y3209493D03*
G01*
X2649093Y3209493D03*
G01*
X2649093Y2759506D03*
G01*
X1999106Y2759506D03*
G01*
X1658493Y5058206D03*
G01*
X1008506Y5058206D03*
G01*
X1008506Y5508193D03*
G01*
X1658493Y5508193D03*
G01*
X3182493Y5058206D03*
G01*
X2532506Y5058206D03*
G01*
X2532506Y5508193D03*
G01*
X3182493Y5508193D03*
G01*
X4706493Y5058206D03*
G01*
X4056506Y5058206D03*
G01*
X4056506Y5508193D03*
G01*
X4706493Y5508193D03*
G01*
X6230493Y5045506D03*
G01*
X5580506Y5045506D03*
G01*
X5580506Y5495493D03*
G01*
X6230493Y5495493D03*
D19*
G01*
X3187700Y3784625D03*
D20*
G01*
X3187725Y3530574D03*
G01*
X3187725Y3276574D03*
G01*
X3187725Y3022574D03*
G01*
X3187725Y2768574D03*
G01*
X3187725Y2514574D03*
G01*
X3187725Y2260574D03*
G01*
X3187725Y2006574D03*
G01*
X3187725Y1752574D03*
G01*
X3187725Y1498574D03*
G01*
X3187725Y1244574D03*
G01*
X3187725Y990574D03*
G01*
X3187725Y736574D03*
G01*
X3187725Y482574D03*
G01*
X3187725Y228574D03*
G01*
X5727725Y228574D03*
G01*
X5727725Y482574D03*
G01*
X5727725Y736574D03*
G01*
X5727725Y990574D03*
G01*
X5727725Y1244574D03*
G01*
X5727725Y1498574D03*
G01*
X5727725Y1752574D03*
G01*
X5727725Y2006574D03*
G01*
X5727725Y2260574D03*
G01*
X5727725Y2514574D03*
G01*
X5727725Y2768574D03*
G01*
X5727725Y3022574D03*
G01*
X5727725Y3276574D03*
G01*
X5727725Y3530574D03*
G01*
X5727725Y3784574D03*
D21*
G01*
X1524000Y533882D03*
G01*
X1778025Y532892D03*
D22*
G01*
X1270000Y533907D03*
D23*
G01*
X1780539Y-254000D03*
D24*
G01*
X1252220Y-254000D03*
M02*
