G04 Layer: BottomSolderMaskLayer*
G04 EasyEDA v6.5.22, 2022-12-28 23:50:03*
G04 d063097526e5497293d9c31780fe4a5b,1c40624b1397419d878b7769f07bb2b0,10*
G04 Gerber Generator version 0.2*
G04 Scale: 100 percent, Rotated: No, Reflected: No *
G04 Dimensions in millimeters *
G04 leading zeros omitted , absolute positions ,4 integer and 5 decimal *
%FSLAX45Y45*%
%MOMM*%

%AMMACRO1*1,1,$1,$2,$3*1,1,$1,$4,$5*1,1,$1,0-$2,0-$3*1,1,$1,0-$4,0-$5*20,1,$1,$2,$3,$4,$5,0*20,1,$1,$4,$5,0-$2,0-$3,0*20,1,$1,0-$2,0-$3,0-$4,0-$5,0*20,1,$1,0-$4,0-$5,$2,$3,0*4,1,4,$2,$3,$4,$5,0-$2,0-$3,0-$4,0-$5,$2,$3,0*%
%ADD10C,2.0828*%
%ADD11C,1.4016*%
%ADD12C,2.1032*%
%ADD13C,1.9016*%
%ADD14C,1.8796*%
%ADD15C,2.0032*%
%ADD16MACRO1,0.1016X-0.9X0.9X0.9X0.9*%
%ADD17C,2.1016*%
%ADD18MACRO1,0.5X-0.762X0.762X0.762X0.762*%
%ADD19C,2.0240*%
%ADD20O,1.9015964X2.7015948*%
%ADD21MACRO1,0.1016X-0.9X1.3X0.9X1.3*%
%ADD22MACRO1,0.1016X-0.85X0.85X0.85X0.85*%
%ADD23C,1.8016*%

%LPD*%
D10*
G01*
X520700Y1117600D03*
G01*
X1536700Y1117600D03*
D11*
G01*
X1397000Y3084499D03*
G01*
X1397000Y2884500D03*
G01*
X520700Y734999D03*
G01*
X520700Y535000D03*
G01*
X2527300Y535000D03*
G01*
X2527300Y734999D03*
D12*
G01*
X7810500Y3606800D03*
G01*
X8064500Y3606800D03*
G01*
X2184400Y1117600D03*
G01*
X2184400Y1371600D03*
D13*
G01*
X6219799Y1574800D03*
G01*
X7089800Y1574800D03*
D14*
G01*
X7493000Y4559300D03*
G01*
X7747000Y4559300D03*
G01*
X8001000Y4559300D03*
G01*
X8255000Y4559300D03*
G01*
X6489700Y127000D03*
G01*
X6489700Y-127000D03*
G01*
X6489700Y-381000D03*
G01*
X6489700Y-635000D03*
D15*
G01*
X7975600Y838200D03*
G01*
X7975600Y1600200D03*
D16*
G01*
X7886700Y2044700D03*
D13*
G01*
X7886700Y2298700D03*
G01*
X7886700Y2552700D03*
D10*
G01*
X6210300Y3784600D03*
G01*
X7226300Y3784600D03*
G01*
X2641600Y3784600D03*
G01*
X1625600Y3784600D03*
G01*
X6223000Y2260600D03*
G01*
X7239000Y2260600D03*
G01*
X6210300Y736600D03*
G01*
X7226300Y736600D03*
G01*
X622300Y5054600D03*
G01*
X622300Y6070600D03*
G01*
X2146300Y5054600D03*
G01*
X2146300Y6070600D03*
G01*
X3670300Y5054600D03*
G01*
X3670300Y6070600D03*
G01*
X5194300Y5054600D03*
G01*
X5194300Y6070600D03*
D17*
G01*
X1999106Y3209493D03*
G01*
X2649093Y3209493D03*
G01*
X2649093Y2759506D03*
G01*
X1999106Y2759506D03*
G01*
X1658493Y5058206D03*
G01*
X1008506Y5058206D03*
G01*
X1008506Y5508193D03*
G01*
X1658493Y5508193D03*
G01*
X3182493Y5058206D03*
G01*
X2532506Y5058206D03*
G01*
X2532506Y5508193D03*
G01*
X3182493Y5508193D03*
G01*
X4706493Y5058206D03*
G01*
X4056506Y5058206D03*
G01*
X4056506Y5508193D03*
G01*
X4706493Y5508193D03*
G01*
X6230493Y5045506D03*
G01*
X5580506Y5045506D03*
G01*
X5580506Y5495493D03*
G01*
X6230493Y5495493D03*
D18*
G01*
X3187700Y3784625D03*
D19*
G01*
X3187725Y3530574D03*
G01*
X3187725Y3276574D03*
G01*
X3187725Y3022574D03*
G01*
X3187725Y2768574D03*
G01*
X3187725Y2514574D03*
G01*
X3187725Y2260574D03*
G01*
X3187725Y2006574D03*
G01*
X3187725Y1752574D03*
G01*
X3187725Y1498574D03*
G01*
X3187725Y1244574D03*
G01*
X3187725Y990574D03*
G01*
X3187725Y736574D03*
G01*
X3187725Y482574D03*
G01*
X3187725Y228574D03*
G01*
X5727725Y228574D03*
G01*
X5727725Y482574D03*
G01*
X5727725Y736574D03*
G01*
X5727725Y990574D03*
G01*
X5727725Y1244574D03*
G01*
X5727725Y1498574D03*
G01*
X5727725Y1752574D03*
G01*
X5727725Y2006574D03*
G01*
X5727725Y2260574D03*
G01*
X5727725Y2514574D03*
G01*
X5727725Y2768574D03*
G01*
X5727725Y3022574D03*
G01*
X5727725Y3276574D03*
G01*
X5727725Y3530574D03*
G01*
X5727725Y3784574D03*
D20*
G01*
X1524000Y533882D03*
G01*
X1778025Y532892D03*
D21*
G01*
X1269987Y533895D03*
D22*
G01*
X1780539Y-254000D03*
D23*
G01*
X1252220Y-254000D03*
M02*
